<svg width="411" height="296" viewBox="0 0 411 296" fill="none" xmlns="http://www.w3.org/2000/svg">
<g id="anim" clip-path="url(#clip0_4_11)">
<g id="sun">
<path id="Vector" d="M121.594 47.389C134.001 47.389 144.059 36.7806 144.059 23.6945C144.059 10.6084 134.001 0 121.594 0C109.187 0 99.1287 10.6084 99.1287 23.6945C99.1287 36.7806 109.187 47.389 121.594 47.389Z" fill="#EC946E"/>
<path id="Vector_2" d="M162.135 5.51495C151.248 3.96276 138.818 10.1696 135.996 21.3687C135.284 19.3775 133.992 17.6763 132.304 16.5108C130.616 15.3454 128.62 14.7761 126.606 14.8851C124.591 14.9942 122.661 15.7759 121.095 17.1175C119.529 18.459 118.408 20.2909 117.894 22.3484L119.141 23.29C142.473 28.6116 166.625 28.4964 189.91 22.9525C182.337 14.5577 173.023 7.06712 162.135 5.51495Z" fill="#F0F0F0"/>
<path id="Vector_3" d="M115.443 37.1076C104.555 35.5554 92.125 41.7623 89.3031 52.9613C88.5919 50.9701 87.299 49.2689 85.6111 48.1035C83.9232 46.9381 81.9278 46.3688 79.913 46.4778C77.8983 46.5868 75.9685 47.3686 74.4026 48.7101C72.8367 50.0517 71.7157 51.8835 71.2015 53.941L72.448 54.8826C95.78 60.2042 119.932 60.0891 143.218 54.5451C135.644 46.1504 126.33 38.6598 115.443 37.1076Z" fill="#F0F0F0"/>
</g>
<path id="Vector_4" d="M198.558 100.473C194.873 94.0443 190.506 87.1806 183.667 85.0815C175.747 82.6507 167.612 87.4797 160.711 92.2449C140.074 106.496 120.199 121.94 101.179 138.507L101.2 138.757C116.008 137.679 130.816 136.602 145.624 135.525C156.322 134.747 167.388 133.862 176.843 128.524C180.431 126.498 183.928 123.792 187.994 123.604C193.045 123.37 197.449 127.09 200.91 130.977C221.383 153.971 227.307 189.135 250.276 209.336C235.793 171.663 218.499 135.261 198.558 100.473Z" fill="#F2F2F2" fill-opacity="0.08"/>
<path id="Vector_5" d="M324.403 295.503C322.139 292.488 321.214 291.782 318.981 288.738C300.797 263.934 283.706 238.291 267.707 211.81C256.84 193.826 246.512 175.496 236.723 156.821C232.062 147.942 227.529 138.994 223.124 129.976C219.706 122.984 216.364 115.95 213.099 108.874C212.165 106.853 211.257 104.823 210.355 102.788C208.227 98.0025 206.139 93.1939 203.897 88.4736C201.342 83.0936 198.232 77.4533 193.541 73.8388C191.406 72.1263 188.853 71.0901 186.18 70.8514C182.361 70.5912 178.837 72.2545 175.524 74.0711C151.288 87.4004 128.598 104.112 108.076 123.128C87.5004 142.187 69.1095 163.718 53.2778 187.284C52.7934 188.014 51.6481 187.317 52.137 186.583C54.062 183.711 56.0252 180.871 58.0265 178.062C82.9113 143.155 113.424 113.137 148.169 89.3796C154.015 85.384 159.971 81.5759 166.036 77.9551C169.093 76.1292 172.163 74.3266 175.286 72.6355C178.348 70.9768 181.599 69.4855 185.096 69.4297C196.998 69.2346 203.161 83.4513 207.394 93.0174C208.725 96.028 210.071 99.0293 211.434 102.021C216.583 113.381 221.931 124.636 227.476 135.788C230.899 142.674 234.397 149.519 237.969 156.323C249.087 177.514 260.904 198.275 273.42 218.607C290.001 245.54 306.449 269.332 325.337 294.518C325.857 295.215 324.928 296.209 324.403 295.503Z" fill="#E4E4E4"/>
<path id="Vector_6" d="M106.899 116.108C106.208 115.295 105.521 114.482 104.825 113.669C99.3361 107.267 93.4468 100.939 85.9098 97.2685C82.3161 95.4632 78.3931 94.504 74.4128 94.4576C70.2986 94.4716 66.277 95.6098 62.4755 97.2034C60.6783 97.9607 58.9206 98.8202 57.1896 99.7355C55.2116 100.785 53.269 101.905 51.3354 103.034C47.7056 105.153 44.1229 107.364 40.5873 109.669C33.5525 114.254 26.738 119.19 20.1438 124.475C16.7255 127.216 13.3776 130.047 10.1004 132.968C7.05218 135.681 4.06564 138.467 1.14076 141.326C0.515286 141.935 -0.4186 140.95 0.206852 140.341C0.97772 139.584 1.7574 138.831 2.53707 138.088C4.73955 135.988 6.97731 133.928 9.25034 131.909C13.3953 128.22 17.6475 124.674 22.0071 121.27C28.7864 115.973 35.7991 111.036 43.0451 106.458C46.6661 104.172 50.3369 101.983 54.0575 99.8888C55.1809 99.2569 56.3174 98.639 57.4671 98.0536C60.0757 96.6658 62.7861 95.5021 65.5721 94.5738C69.5186 93.2273 73.6941 92.7946 77.8135 93.3054C81.791 93.9157 85.6232 95.3139 89.1079 97.4264C96.5081 101.789 102.248 108.535 107.833 115.118C108.397 115.787 107.468 116.777 106.899 116.108Z" fill="#E4E4E4"/>
<path id="Vector_7" d="M83.5762 105.324C74.5647 100.439 63.0243 101.396 54.7433 107.499C70.5386 110.373 86.161 114.219 101.531 119.016C95.1482 115.072 90.1557 108.891 83.5762 105.324Z" fill="#F2F2F2" fill-opacity="0.08"/>
<path id="Vector_8" d="M54.6546 107.482L52.9198 108.97C53.5066 108.449 54.1166 107.961 54.7433 107.499C54.7137 107.494 54.6842 107.488 54.6546 107.482Z" fill="#F2F2F2"/>
<path id="Vector_9" opacity="0.15" d="M152.662 261.185C152.679 261.539 152.714 261.892 152.767 262.242C151.858 260.771 151.336 259.072 151.252 257.318C151.24 257.05 151.213 256.782 151.177 256.516C152.06 257.904 152.572 259.516 152.662 261.185Z" fill="black"/>
<path id="Vector_10" opacity="0.15" d="M149.728 249.235C148.988 249.573 148.208 249.805 147.41 249.926C147.102 249.584 146.818 249.218 146.56 248.833C147.579 249.193 148.657 249.329 149.728 249.235Z" fill="black"/>
<path id="Vector_11" opacity="0.15" d="M146.311 246.006C146.229 246.856 146.251 247.713 146.378 248.557C145.936 247.848 145.583 247.081 145.329 246.275L145.288 246.145L145.417 246.134C145.717 246.107 146.015 246.065 146.311 246.006Z" fill="black"/>
<g id="trees">
<path id="Vector_12" d="M307.095 182.52C305.349 180.279 303.462 177.932 300.851 177.022L298.413 177.123C316.969 211.706 342.031 241.925 372.059 265.924C350.404 238.123 328.75 210.321 307.095 182.52Z" fill="#F2F2F2"/>
<path id="Vector_13" d="M319.586 241.652L344.053 222.06L355.979 234.638L316.12 263.406L319.586 241.652Z" fill="#270000"/>
<path id="Vector_14" d="M296.767 295.598H213.072L216.007 285.567C234.2 278.62 223.981 263.689 241.287 254.563C283.616 232.24 300.004 165.627 293.806 139.294L321.545 138.057C321.545 138.057 359.853 252.799 296.767 295.598Z" fill="#270000"/>
<path id="Vector_15" d="M368.218 248.443C365.718 250.761 362.52 252.07 359.192 252.136C355.863 252.201 352.62 251.02 350.04 248.801L349.986 248.754L349.984 248.681C349.953 247.452 349.772 246.232 349.443 245.052C349.427 245.902 349.309 246.745 349.094 247.564L349.024 247.839L348.836 247.634C348.673 247.458 348.516 247.278 348.369 247.101C347.5 246.062 346.773 244.901 346.208 243.651C343.501 237.78 339.58 232.625 334.733 228.565C333.868 227.823 333.063 227.006 332.326 226.122C329.214 222.388 327.464 217.607 327.389 212.635C327.314 207.664 328.92 202.827 331.918 198.99C334.916 195.153 339.112 192.568 343.753 191.696C348.394 190.824 353.178 191.724 357.247 194.233L357.371 194.309L357.307 194.445C356.836 195.476 356.213 196.423 355.463 197.251C356.495 196.663 357.45 195.935 358.303 195.086L358.393 194.997L358.496 195.071C359.832 196.046 361.051 197.19 362.125 198.478L362.24 198.618C363.06 199.606 364.068 200.402 365.198 200.952C366.328 201.502 367.556 201.795 368.801 201.811C370.832 201.847 372.831 202.347 374.662 203.276C376.492 204.205 378.11 205.541 379.404 207.192C380.698 208.843 381.638 210.771 382.158 212.842C382.679 214.913 382.767 217.078 382.419 219.189L382.403 219.287L382.312 219.316C380.734 219.887 379.06 220.107 377.397 219.962C378.786 220.6 380.265 220.991 381.775 221.119L381.97 221.135L381.908 221.331C381.122 223.822 379.722 226.048 377.852 227.781L377.799 227.831C377.78 227.848 377.761 227.865 377.742 227.883C376.349 229.148 375.209 230.694 374.39 232.43C373.571 234.167 373.088 236.058 372.971 237.993C372.879 239.981 372.41 241.929 371.594 243.724C370.778 245.518 369.63 247.122 368.218 248.443Z" fill="#426544"/>
<path id="Vector_16" opacity="0.15" d="M379.059 206.692C377.764 205.143 376.177 203.895 374.4 203.028C372.623 202.162 370.694 201.695 368.736 201.658C367.491 201.642 366.263 201.349 365.133 200.799C364.002 200.249 362.995 199.453 362.175 198.465L362.06 198.325C360.986 197.037 359.767 195.893 358.43 194.918L358.328 194.844L358.238 194.933C357.385 195.782 356.43 196.51 355.397 197.098C356.148 196.27 356.771 195.323 357.242 194.292L357.306 194.156L357.182 194.08C354.484 192.414 351.451 191.445 348.33 191.251C345.21 191.058 342.09 191.645 339.225 192.965C336.36 194.285 333.832 196.301 331.847 198.848C329.861 201.395 328.475 204.401 327.801 207.621C329.099 205.215 330.838 203.105 332.915 201.413C334.992 199.721 337.367 198.481 339.902 197.764C342.437 197.047 345.082 196.868 347.683 197.237C350.284 197.606 352.79 198.516 355.055 199.914L355.179 199.991L355.114 200.126C354.643 201.158 354.021 202.105 353.27 202.932C354.302 202.344 355.257 201.616 356.111 200.767L356.201 200.678L356.303 200.752C357.64 201.727 358.859 202.872 359.932 204.159L360.048 204.299C360.867 205.288 361.875 206.083 363.005 206.633C364.136 207.183 365.363 207.476 366.608 207.492C369.863 207.55 372.998 208.797 375.479 211.021C377.96 213.244 379.632 216.306 380.212 219.685C380.9 219.555 381.58 219.381 382.247 219.163L382.338 219.134L382.354 219.036C382.719 216.849 382.612 214.604 382.042 212.467C381.472 210.331 380.452 208.357 379.059 206.692Z" fill="black"/>
<path id="Vector_17" d="M408.671 145.611C408.67 156.916 404.867 167.855 397.94 176.482C391.012 185.11 381.408 190.866 370.835 192.729L370.612 192.767L370.439 192.615C367.556 190.079 364.374 187.949 360.972 186.277C362.884 188.125 364.568 190.219 365.986 192.509L366.468 193.274L365.599 193.318C364.849 193.356 364.103 193.376 363.384 193.376C359.155 193.379 354.947 192.764 350.878 191.547C332.399 186.001 312.554 185.053 291.896 188.728C288.354 189.356 284.769 189.672 281.177 189.671C245.954 189.671 217.298 159.441 217.298 122.284C217.279 108.117 221.5 94.3045 229.361 82.8164C237.221 71.3282 248.319 62.7503 261.073 58.3052L261.512 58.1519L261.686 58.6039C263.049 61.9998 263.896 65.601 264.196 69.275C265.043 65.3922 265.405 61.4095 265.275 57.4278L265.261 57.0074L265.648 56.9049C270.728 55.5698 275.942 54.8952 281.177 54.896L281.743 54.8985C285.752 54.9111 289.718 54.0324 293.383 52.3199C297.048 50.6074 300.33 48.0995 303.014 44.9596C307.416 39.8571 312.813 35.8209 318.835 33.1286C324.857 30.4363 331.361 29.1519 337.898 29.3637C344.436 29.5755 350.852 31.2784 356.706 34.3555C362.56 37.4325 367.712 41.8105 371.809 47.1883L371.999 47.4373L371.873 47.7292C369.228 53.8801 366.345 58.3611 362.904 61.6381C367.32 59.4534 371.361 56.5121 374.865 52.9337L375.317 52.4711L375.635 53.0455C379.672 60.3486 381.798 68.6517 381.795 77.1056L381.794 77.3466C381.794 77.4317 381.794 77.5174 381.794 77.6024C381.794 90.5345 386.535 102.792 394.824 111.269C399.183 115.732 402.654 121.069 405.032 126.966C407.409 132.864 408.647 139.202 408.671 145.611Z" fill="#477A49"/>
<path id="Vector_18" d="M186.591 259.844L170.375 246.859L162.471 255.196L188.888 274.262L186.591 259.844Z" fill="#270000"/>
<path id="Vector_19" d="M201.714 295.598H257.185L255.239 288.95C243.181 284.346 249.954 274.45 238.484 268.401C210.43 253.607 199.569 209.458 203.677 192.006L185.292 191.186C185.292 191.186 159.903 267.233 201.714 295.598Z" fill="#270000"/>
<path id="Vector_20" d="M151.209 257.42C151.131 256.137 150.811 254.883 150.269 253.733C149.726 252.582 148.97 251.557 148.047 250.719C148.034 250.707 148.022 250.696 148.009 250.684L147.974 250.651C146.735 249.503 145.807 248.027 145.286 246.376L145.244 246.247L145.374 246.236C146.374 246.151 147.355 245.892 148.275 245.469C147.173 245.566 146.064 245.42 145.018 245.041L144.958 245.022L144.947 244.957C144.716 243.558 144.775 242.123 145.12 240.75C145.465 239.378 146.087 238.1 146.945 237.006C147.803 235.911 148.875 235.026 150.088 234.41C151.301 233.794 152.627 233.463 153.973 233.439C154.798 233.429 155.611 233.235 156.361 232.87C157.11 232.505 157.778 231.978 158.321 231.323L158.397 231.23C159.109 230.377 159.917 229.619 160.803 228.972L160.87 228.923L160.93 228.982C161.496 229.545 162.129 230.027 162.813 230.417C162.315 229.869 161.903 229.241 161.59 228.557L161.548 228.467L161.63 228.417C164.327 226.754 167.498 226.158 170.574 226.735C173.65 227.313 176.43 229.027 178.417 231.57C180.405 234.113 181.469 237.318 181.419 240.613C181.37 243.908 180.21 247.077 178.147 249.552C177.659 250.137 177.125 250.679 176.552 251.171C173.339 253.862 170.74 257.278 168.947 261.169C168.572 261.998 168.09 262.767 167.515 263.456C167.417 263.574 167.313 263.692 167.205 263.809L167.08 263.945L167.034 263.763C166.891 263.22 166.813 262.661 166.802 262.098C166.585 262.88 166.464 263.688 166.444 264.503L166.443 264.552L166.407 264.583C165.069 265.734 163.455 266.471 161.743 266.711C160.032 266.951 158.291 266.685 156.714 265.942C155.138 265.199 153.789 264.008 152.817 262.504C151.844 260.999 151.288 259.239 151.209 257.42Z" fill="#477A49"/>
<path id="Vector_21" opacity="0.15" d="M147.174 236.675C148.032 235.648 149.084 234.821 150.262 234.246C151.44 233.672 152.718 233.362 154.016 233.338C154.841 233.327 155.655 233.133 156.404 232.769C157.153 232.404 157.821 231.877 158.364 231.222L158.441 231.129C159.152 230.276 159.96 229.517 160.846 228.871L160.914 228.822L160.973 228.881C161.539 229.444 162.172 229.926 162.856 230.316C162.358 229.767 161.946 229.14 161.634 228.456L161.591 228.366L161.673 228.315C163.461 227.211 165.471 226.569 167.54 226.441C169.608 226.312 171.676 226.702 173.575 227.577C175.473 228.452 177.149 229.788 178.465 231.476C179.78 233.164 180.699 235.156 181.146 237.29C180.285 235.695 179.133 234.297 177.757 233.176C176.38 232.054 174.806 231.232 173.126 230.757C171.446 230.282 169.693 230.163 167.969 230.408C166.245 230.653 164.584 231.256 163.083 232.182L163.001 232.233L163.044 232.322C163.356 233.006 163.768 233.634 164.266 234.182C163.582 233.793 162.949 233.31 162.383 232.748L162.324 232.688L162.256 232.737C161.37 233.384 160.562 234.142 159.851 234.996L159.774 235.088C159.231 235.744 158.563 236.271 157.814 236.635C157.065 237 156.251 237.194 155.426 237.205C153.269 237.243 151.191 238.07 149.547 239.543C147.903 241.017 146.794 243.046 146.41 245.286C145.954 245.199 145.503 245.084 145.061 244.939L145.001 244.92L144.99 244.855C144.748 243.406 144.819 241.918 145.197 240.502C145.575 239.086 146.251 237.778 147.174 236.675Z" fill="black"/>
<path id="Vector_22" d="M136.726 173.431C142.219 167.813 145.362 159.689 145.362 151.118C145.362 151.062 145.362 151.005 145.361 150.949L145.361 150.789C145.359 145.186 146.768 139.683 149.444 134.843L149.654 134.462L149.954 134.769C152.276 137.14 154.955 139.09 157.881 140.538C155.6 138.366 153.69 135.396 151.936 131.319L151.853 131.126L151.979 130.961C154.694 127.397 158.109 124.495 161.989 122.456C165.869 120.416 170.121 119.288 174.454 119.147C178.787 119.007 183.097 119.858 187.088 121.643C191.079 123.427 194.657 126.102 197.574 129.484C199.353 131.565 201.528 133.227 203.957 134.362C206.386 135.497 209.015 136.079 211.671 136.071L212.047 136.069C215.516 136.069 218.972 136.516 222.339 137.401L222.595 137.469L222.586 137.747C222.5 140.386 222.74 143.026 223.301 145.599C223.5 143.164 224.062 140.777 224.965 138.527L225.08 138.227L225.371 138.329C234.919 141.671 243.027 148.488 248.244 157.56C253.461 166.633 255.446 177.367 253.843 187.842C252.24 198.317 247.154 207.848 239.495 214.729C231.837 221.609 222.107 225.39 212.047 225.394C209.666 225.394 207.29 225.185 204.942 224.768C191.251 222.333 178.099 222.961 165.851 226.637C163.155 227.443 160.366 227.851 157.563 227.849C157.086 227.849 156.592 227.836 156.095 227.81L155.519 227.781L155.839 227.274C156.778 225.757 157.894 224.369 159.161 223.144C156.907 224.252 154.798 225.664 152.887 227.344L152.773 227.445L152.624 227.42C147.141 226.458 142.018 223.907 137.829 220.053C133.639 216.199 130.547 211.193 128.899 205.594C127.25 199.994 127.108 194.021 128.49 188.342C129.873 182.663 132.724 177.501 136.726 173.431Z" fill="#426544"/>
</g>
<g id="Group" opacity="0.15">
<path id="Vector_23" opacity="0.15" d="M164.243 121.38C165.278 123.191 166.551 124.838 168.025 126.273C165.915 125.228 163.931 123.92 162.116 122.378C162.812 122.016 163.521 121.683 164.243 121.38Z" fill="black"/>
<path id="Vector_24" opacity="0.15" d="M146.869 159.166C145.237 160.837 143.789 162.697 142.554 164.712C144.413 160.449 145.371 155.81 145.362 151.118C145.362 151.062 145.362 151.005 145.361 150.949L145.361 150.789C145.359 145.186 146.768 139.683 149.444 134.843L149.654 134.462L149.954 134.769C151.609 136.456 153.446 137.931 155.428 139.165C154.917 146.872 151.866 154.056 146.869 159.166Z" fill="black"/>
<path id="Vector_25" opacity="0.15" d="M155.504 136.524L155.505 136.684C155.505 136.74 155.505 136.797 155.505 136.853C155.505 137.164 155.5 137.474 155.492 137.784C154.078 135.778 152.885 133.609 151.936 131.319L151.853 131.126L151.979 130.961C153.563 128.883 155.387 127.022 157.409 125.422C156.15 128.973 155.505 132.733 155.504 136.524Z" fill="black"/>
</g>
<path id="Vector_26" d="M21.3482 261.387C16.4976 261.387 11.8042 259.572 8.10266 256.266C4.40111 252.959 1.93125 248.375 1.13221 243.329L1.11568 243.222L1.18096 243.14C2.26879 241.764 3.18283 240.245 3.9002 238.622C3.10727 239.534 2.20894 240.338 1.22625 241.014L0.898272 241.244L0.879358 240.83C0.86284 240.472 0.854576 240.116 0.854576 239.773C0.852923 237.754 1.117 235.745 1.63923 233.804C4.0185 224.984 4.42534 215.512 2.84858 205.652C2.57916 203.962 2.44378 202.251 2.44386 200.536C2.44628 193.292 4.89371 186.284 9.3479 180.769C13.8021 175.254 19.9722 171.592 26.7533 170.437C33.5344 169.283 40.4837 170.712 46.3568 174.469C52.2299 178.226 56.6433 184.065 58.8067 190.941L58.8725 191.151L58.6785 191.233C57.2215 191.884 55.6764 192.288 54.1001 192.431C55.766 192.836 57.4748 193.009 59.1831 192.946L59.3635 192.94L59.4075 193.125C59.9803 195.549 60.2697 198.038 60.2694 200.536L60.2683 200.807C60.2629 202.72 60.6399 204.613 61.3747 206.362C62.1094 208.111 63.1854 209.678 64.5326 210.959C66.7219 213.06 68.4536 215.636 69.6087 218.51C70.7639 221.384 71.315 224.488 71.2241 227.608C71.1332 230.729 70.4025 233.791 69.0824 236.585C67.7622 239.379 65.8838 241.838 63.5764 243.794L63.4695 243.885L63.3443 243.824C60.7053 242.562 58.7827 241.186 57.3767 239.544C58.314 241.651 59.576 243.58 61.1113 245.252L61.3098 245.468L61.0634 245.62C57.93 247.547 54.3675 248.561 50.7403 248.56L50.637 248.56C50.6005 248.559 50.5637 248.559 50.5272 248.559C47.8482 248.53 45.1906 249.064 42.7102 250.132C40.2298 251.2 37.9766 252.78 36.0827 254.778C34.1676 256.859 31.8777 258.516 29.3475 259.65C26.8173 260.785 24.0977 261.376 21.3482 261.387Z" fill="#426544"/>
<path id="Vector_27" d="M14.0957 295.444C14.0067 295.444 13.9207 295.41 13.8536 295.349C13.7864 295.287 13.7425 295.202 13.73 295.109C13.7143 294.993 12.1751 283.284 13.5574 267.724C14.8341 253.353 18.9338 232.654 31.215 215.655C31.2444 215.614 31.2812 215.58 31.3232 215.554C31.3651 215.528 31.4116 215.511 31.4597 215.504C31.5079 215.498 31.5569 215.501 31.6039 215.514C31.6508 215.527 31.6949 215.55 31.7336 215.581C31.7723 215.612 31.8047 215.651 31.8292 215.695C31.8536 215.739 31.8695 215.788 31.876 215.839C31.8825 215.89 31.8794 215.941 31.8669 215.991C31.8545 216.041 31.8329 216.087 31.8034 216.128C19.6283 232.981 15.5616 253.527 14.294 267.797C12.9196 283.267 14.4468 294.883 14.4623 294.999C14.4698 295.054 14.4658 295.111 14.4508 295.164C14.4358 295.218 14.41 295.268 14.3752 295.31C14.3405 295.352 14.2975 295.386 14.2493 295.409C14.2011 295.432 14.1487 295.444 14.0957 295.444Z" fill="#270000"/>
<path id="Vector_28" d="M20.235 238.133C20.1569 238.133 20.0808 238.107 20.0175 238.059C19.9543 238.01 19.9072 237.942 19.883 237.864C19.8588 237.785 19.8588 237.701 19.8829 237.622C19.9071 237.544 19.9541 237.476 20.0173 237.427C23.5167 234.929 27.297 232.899 31.2713 231.385C37.4804 228.987 46.9222 226.814 56.6424 230.077C56.6889 230.092 56.7319 230.117 56.7692 230.15C56.8065 230.183 56.8372 230.223 56.8596 230.269C56.882 230.315 56.8957 230.364 56.8999 230.415C56.904 230.467 56.8986 230.518 56.8838 230.567C56.869 230.616 56.8453 230.661 56.8139 230.701C56.7825 230.74 56.744 230.772 56.7008 230.796C56.6575 230.819 56.6103 230.833 56.5618 230.837C56.5133 230.842 56.4645 230.836 56.4181 230.82C46.8971 227.624 37.6264 229.762 31.5257 232.118C27.6153 233.606 23.8955 235.602 20.4521 238.058C20.3891 238.107 20.3131 238.133 20.235 238.133Z" fill="#270000"/>
<path id="Vector_29" d="M389.985 296H1.25955C1.20625 296 1.15345 295.989 1.10416 295.968C1.05487 295.947 1.01007 295.915 0.972325 295.875C0.934578 295.836 0.904628 295.789 0.884193 295.737C0.863758 295.685 0.853241 295.629 0.853241 295.573C0.853241 295.517 0.863758 295.461 0.884193 295.409C0.904628 295.357 0.934578 295.31 0.972325 295.27C1.01007 295.231 1.05487 295.199 1.10416 295.178C1.15345 295.156 1.20625 295.146 1.25955 295.146H389.985C390.092 295.146 390.195 295.191 390.271 295.271C390.347 295.351 390.39 295.46 390.39 295.573C390.39 295.686 390.347 295.795 390.271 295.875C390.195 295.955 390.092 296 389.985 296Z" fill="#BEBEBE"/>
<g id="girl">
<path id="Vector_30" d="M59.8803 220.974C60.3074 220.852 60.7038 220.632 61.0416 220.33C61.3793 220.028 61.6503 219.652 61.8352 219.227C62.0202 218.803 62.1148 218.341 62.1122 217.875C62.1096 217.408 62.0101 216.947 61.8204 216.525L68.3463 194.085L63.5463 193.081L57.5777 215.077C56.9268 215.46 56.4317 216.082 56.1862 216.824C55.9406 217.566 55.9618 218.378 56.2456 219.105C56.5294 219.831 57.0562 220.423 57.7261 220.768C58.396 221.113 59.1625 221.186 59.8803 220.974Z" fill="#FFB6B6"/>
<path id="Vector_31" d="M68.7266 187.529C68.0338 187.239 67.2714 187.19 66.5505 187.39V187.394C66.3075 187.456 66.0724 187.548 65.8501 187.668C65.6065 187.794 65.3786 187.952 65.1718 188.138C64.7244 188.529 64.3788 189.034 64.1674 189.606L60.9871 195.45C60.8957 195.616 60.8396 195.801 60.8229 195.992C60.8062 196.183 60.8291 196.375 60.8902 196.556C60.9498 196.738 61.0461 196.904 61.1723 197.042C61.2985 197.181 61.4517 197.289 61.6214 197.36L62.3086 197.643L65.5726 198.995L66.7752 199.497L67.5857 199.831C67.755 199.902 67.9369 199.933 68.1187 199.923C68.3005 199.912 68.478 199.86 68.639 199.771C68.8001 199.681 68.9409 199.556 69.0518 199.404C69.1627 199.251 69.2411 199.076 69.2816 198.888L70.7176 192.342C71.0573 191.425 71.0385 190.404 70.6652 189.502C70.292 188.599 69.5949 187.89 68.7266 187.529Z" fill="#270000"/>
<path id="Vector_32" d="M78.1845 288.505H81.5076L83.089 274.987H78.1845V288.505Z" fill="#FFB6B6"/>
<path id="Vector_33" d="M76.4309 294.577H78.8138L79.2392 292.204L80.3285 294.577H86.6487C86.9516 294.577 87.2466 294.475 87.4907 294.285C87.7347 294.096 87.9149 293.829 88.0051 293.524C88.0952 293.219 88.0906 292.892 87.9918 292.59C87.893 292.288 87.7052 292.027 87.4559 291.845L82.4089 288.169V285.77L77.1003 286.104L76.4309 294.577Z" fill="#050505"/>
<path id="Vector_34" d="M45.8689 281.551L48.7268 283.339L56.6249 272.562L52.4067 269.924L45.8689 281.551Z" fill="#FFB6B6"/>
<path id="Vector_35" d="M41.4237 285.83L43.4733 287.112L44.9867 285.3L44.7761 287.927L50.2122 291.328C50.4727 291.491 50.7759 291.562 51.0773 291.53C51.3788 291.498 51.6628 291.366 51.8879 291.152C52.113 290.938 52.2673 290.654 52.3284 290.341C52.3896 290.028 52.3542 289.703 52.2276 289.412L49.6645 283.535L50.8247 281.472L46.097 278.903L41.4237 285.83Z" fill="#050505"/>
<path id="Vector_36" d="M79.6677 202.072L81.2826 212.929L65.9423 213.142L67.9611 202.711L79.6677 202.072Z" fill="#FFB6B6"/>
<path id="Vector_37" d="M81.3416 212.792L85.7231 223.999L86.0422 253.97L82.3033 282.587H78.1656L76.4703 254.437L72.3005 235.176L68.1881 255.321L55.401 275.039H49.1176L60.6696 253.31L62.0066 229.641C62.0066 229.641 61.1733 219.599 65.4379 213.674L66.4759 210.511L81.3416 212.792Z" fill="#050505"/>
<path id="Vector_38" d="M81.5538 192.073C81.545 191.975 81.5318 191.873 81.5142 191.775C81.1826 189.433 79.9846 187.324 78.1824 185.911C76.3802 184.498 74.1206 183.895 71.8981 184.235C69.8109 184.565 67.9095 185.686 66.5505 187.39V187.394C66.48 187.482 66.414 187.575 66.3479 187.668C66.229 187.826 66.1188 187.994 66.0131 188.161C65.0583 189.682 64.5665 191.475 64.6035 193.299V193.304C64.6174 194.007 64.7105 194.706 64.881 195.385C65.1744 196.574 65.4053 197.779 65.5726 198.995C65.6871 199.766 65.7753 200.524 65.8413 201.262C65.881 201.634 65.9118 202.001 65.9382 202.359V202.364C66.0704 204.134 66.1144 205.723 66.1541 206.954C66.1717 207.623 66.1893 208.18 66.2202 208.608C66.2209 208.636 66.2238 208.664 66.229 208.691C66.2628 208.979 66.3797 209.248 66.5637 209.463C66.5864 209.493 66.6114 209.521 66.6386 209.546C66.834 209.732 67.0702 209.863 67.3258 209.927C67.4143 209.946 67.5043 209.955 67.5945 209.955H67.621L70.189 208.691L72.2153 207.697L79.0914 204.315C79.3732 204.309 79.6466 204.212 79.8748 204.038C80.1031 203.863 80.2755 203.62 80.3689 203.339V203.335C80.3777 203.297 80.3909 203.26 80.3997 203.218C80.7697 201.681 81.4261 200.031 81.6595 197.378C81.6904 196.997 81.7168 196.603 81.73 196.18V196.175C81.7687 194.805 81.7098 193.434 81.5538 192.073Z" fill="#270000"/>
<path id="Vector_39" d="M72.0041 182.766C75.5862 182.766 78.4901 179.703 78.4901 175.925C78.4901 172.147 75.5862 169.084 72.0041 169.084C68.4219 169.084 65.518 172.147 65.518 175.925C65.518 179.703 68.4219 182.766 72.0041 182.766Z" fill="#FFB6B6"/>
<path id="Vector_40" d="M65.0793 186.558C63.713 186.56 62.4031 187.133 61.4369 188.152C60.4708 189.171 59.9272 190.553 59.9255 191.994V203.26C59.925 204.527 60.3444 205.754 61.111 206.728C61.8776 207.703 62.9432 208.365 64.1234 208.598H64.1278C64.4416 208.66 64.7601 208.691 65.0793 208.691H72.2153V186.558H65.0793Z" fill="#030024"/>
<path id="Vector_41" d="M65.1718 187.668V195.887C65.1718 196.138 65.2664 196.379 65.435 196.557C65.6035 196.735 65.8321 196.835 66.0704 196.835C66.3087 196.835 66.5373 196.735 66.7058 196.557C66.8743 196.379 66.969 196.138 66.969 195.887V187.668H65.1718Z" fill="#A18181"/>
<path id="Vector_42" d="M69.1319 201.262H63.9076C63.7585 201.262 63.611 201.294 63.4734 201.354C63.3358 201.414 63.2109 201.503 63.1057 201.614C63.0005 201.725 62.9172 201.857 62.8606 202.003C62.8039 202.148 62.775 202.304 62.7755 202.461V205.755C62.7752 206.072 62.8943 206.377 63.1065 206.601C63.3187 206.826 63.6068 206.953 63.9076 206.954H69.1319C69.4331 206.953 69.7217 206.826 69.9347 206.602C70.1477 206.377 70.2676 206.073 70.2684 205.755V202.461C70.2684 202.304 70.239 202.148 70.1819 202.002C70.1248 201.857 70.041 201.725 69.9355 201.613C69.83 201.502 69.7047 201.414 69.5668 201.354C69.4289 201.293 69.2811 201.262 69.1319 201.262Z" fill="#A28181"/>
<path id="Vector_43" d="M78.7826 200.22C80.2074 198.313 80.9595 195.943 80.9101 193.515C80.9101 188.634 78.1534 184.663 74.7649 184.663C72.9458 184.663 71.2319 185.809 70.0628 187.809L70.5731 188.141C71.6306 186.332 73.1585 185.295 74.7649 185.295C77.8228 185.295 80.3106 188.983 80.3106 193.515C80.3604 195.793 79.6587 198.019 78.3252 199.812L78.7826 200.22Z" fill="#477A49"/>
<path id="Vector_44" d="M92.9169 216.75C93.113 216.331 93.2197 215.872 93.2294 215.405C93.2392 214.938 93.1518 214.475 92.9733 214.048C92.7949 213.62 92.5299 213.24 92.1968 212.932C91.8637 212.624 91.4708 212.398 91.0456 212.267L79.4468 192.236L75.5517 195.36L87.2049 214.657C87.0451 215.425 87.1578 216.228 87.5218 216.914C87.8858 217.6 88.4757 218.121 89.1798 218.379C89.8838 218.637 90.6532 218.614 91.3419 218.313C92.0307 218.013 92.5911 217.457 92.9169 216.75Z" fill="#FFB6B6"/>
<path id="Vector_45" d="M83.4744 194.679L81.5142 191.775L80.4658 190.224L79.7831 189.211C79.5687 188.765 79.2704 188.37 78.9065 188.049C78.2852 187.501 77.5037 187.195 76.6936 187.183C75.8835 187.172 75.0944 187.455 74.4591 187.985C73.8239 188.515 73.3814 189.26 73.2062 190.095C73.0309 190.929 73.1337 191.801 73.4972 192.565L75.5323 198.953C75.591 199.135 75.6862 199.302 75.8113 199.441C75.9363 199.581 76.0884 199.691 76.2572 199.763C76.4259 199.835 76.6074 199.868 76.7894 199.86C76.9714 199.852 77.1496 199.803 77.3119 199.715L77.9682 199.362L79.0034 198.805L79.9328 198.308H79.9372L81.6596 197.378L82.2454 197.067L83.0207 196.649C83.1825 196.561 83.3245 196.437 83.4371 196.286C83.5497 196.135 83.6302 195.96 83.6732 195.773C83.7162 195.586 83.7207 195.392 83.6864 195.203C83.6521 195.015 83.5798 194.836 83.4744 194.679Z" fill="#270000"/>
<path id="Vector_46" d="M68.0482 170.343V170.348C68.0489 170.646 68.0129 170.942 67.9412 171.23C67.9297 171.28 67.9161 171.333 67.9001 171.384V171.386C67.7473 171.9 67.4836 172.37 67.1298 172.759C66.776 173.147 66.3417 173.444 65.8609 173.626C65.7903 173.655 65.7174 173.679 65.6445 173.7C65.4909 173.747 65.3339 173.781 65.1751 173.801C65.0325 173.823 64.8886 173.833 64.7445 173.833C64.6319 173.833 64.5194 173.827 64.4073 173.816C64.1451 173.788 63.8872 173.726 63.6395 173.631C63.6007 173.619 63.5626 173.604 63.5256 173.587C63.5069 173.58 63.4887 173.572 63.4709 173.563C63.0575 173.381 62.6837 173.112 62.372 172.772C62.0603 172.433 61.8173 172.03 61.6577 171.588C61.4981 171.147 61.4252 170.675 61.4436 170.203C61.4619 169.731 61.571 169.268 61.7643 168.841L61.7666 168.839C61.9286 168.481 62.1483 168.156 62.416 167.878C63.0339 167.227 63.8715 166.863 64.7445 166.864C64.7878 166.863 64.8312 166.864 64.8744 166.868C65.3771 166.89 65.8686 167.033 66.3115 167.285C66.7544 167.536 67.1371 167.891 67.4308 168.322C67.6849 168.694 67.8662 169.116 67.9639 169.562C68.0198 169.818 68.0481 170.08 68.0482 170.343Z" fill="#050505"/>
<path id="Vector_47" d="M64.2356 168.23C63.9452 167.076 63.3175 166.047 62.4417 165.289C61.5658 164.532 60.4861 164.085 59.3557 164.011C58.2253 163.937 57.1016 164.24 56.1437 164.878C55.1859 165.515 54.4426 166.454 54.0191 167.562C53.3094 169.419 53.5696 171.526 53.1445 173.477C52.7159 175.248 51.7483 176.823 50.39 177.959C49.0317 179.095 47.3577 179.73 45.6245 179.766L52.0546 182.499C52.7412 182.869 53.511 183.034 54.2801 182.975C55.3989 182.775 56.1774 181.648 56.4926 180.498C56.8078 179.348 56.7822 178.127 56.9817 176.949C57.2407 175.501 57.8304 174.142 58.6997 172.989C59.569 171.836 60.6918 170.924 61.9707 170.332C62.6946 170.006 63.4992 169.76 64.0111 169.129C64.523 168.498 64.4945 167.308 63.7526 167.03" fill="#050505"/>
<path id="Vector_48" d="M74.6557 168.257C73.7834 166.247 71.482 166.656 69.4012 166.921C68.3621 167.09 67.3777 167.524 66.5334 168.185C65.6891 168.846 65.0103 169.714 64.5557 170.714C63.6663 172.74 63.4963 175.036 64.0766 177.184C64.3879 178.647 65.1308 179.968 66.1986 180.957C67.2975 181.889 72.4636 184.094 72.8937 182.195C72.3561 184.672 73.4377 184.284 75.0387 186.182C75.8679 183.555 76.2566 178.605 77.0858 175.978L77.4603 174.791C77.7234 173.958 77.9869 173.123 78.177 172.267C78.4159 171.193 78.5078 169.96 77.8749 169.081C77.2421 168.202 75.6478 168.168 75.3279 169.219" fill="#050505"/>
<path id="Vector_49" d="M73.6114 176.623L73.3342 174.762C73.5226 172.447 73.215 168.764 74.6557 168.257L75.5367 169.187C74.9794 169.383 73.9194 172.845 73.6114 176.623Z" fill="#EC946E"/>
</g>
<g id="plane">
<path id="Vector_50" d="M295.754 17.5589C294.973 17.8262 293.601 18.0449 292.014 18.2214C287.696 18.7015 281.779 18.872 281.779 18.872C281.779 18.872 251.371 21.2094 228.579 12.5166C228.579 12.5166 225.264 10.9056 228.343 8.73844C228.816 8.4141 229.32 8.12935 229.847 7.88754C229.847 7.88754 229.86 7.87553 229.885 7.85319C230.235 7.5534 230.613 7.28329 231.015 7.04611C232.195 6.33888 234.189 5.49978 236.616 5.87983L296.473 14.8523C296.473 14.8523 298.66 16.5643 295.754 17.5589Z" fill="#F2F2F2"/>
<path id="Vector_51" d="M283.827 13.4928L296.358 5.25308L301.882 6.13827L296.473 14.8523C296.473 14.8523 283.971 14.9445 283.827 13.4928Z" fill="#F2F2F2"/>
<path id="Vector_52" d="M252.277 8.48747L277.238 2L281.262 2.77909L269.987 7.47955L266.462 11.1332L252.277 8.48747Z" fill="#F2F2F2"/>
<path id="Vector_53" d="M292.014 18.2214C287.696 18.7015 281.779 18.872 281.779 18.872C281.779 18.872 251.371 21.2094 228.579 12.5166C228.579 12.5166 225.264 10.9056 228.343 8.73843L228.354 8.77804C228.354 8.77804 233.271 11.8583 256.769 14.4302L292.014 18.2214Z" fill="#F2F2F2"/>
<path id="Vector_54" d="M288.001 18.0433L299.161 22.2658L301.965 21.9773L295.289 17.3284C295.289 17.3284 287.215 15.7327 288.001 18.0433Z" fill="#F2F2F2"/>
<path id="Vector_55" d="M232.396 9.2291C231.863 9.23774 230.643 8.40979 229.885 7.8532C230.235 7.55341 230.613 7.2833 231.015 7.04611C231.626 7.48094 232.714 8.185 233.319 8.15994C234.193 8.1237 233.198 9.21625 232.396 9.2291Z" fill="#F2F2F2"/>
<path id="Vector_56" d="M283.095 32.6405L275.93 32.9876L255.786 20.3993L252.047 18.0623L250.229 16.9266C253.637 14.257 267.541 17.9378 267.541 17.9378C267.807 18.146 267.892 18.4919 267.88 18.8739C267.857 19.5898 267.494 20.4324 267.354 20.7322C267.321 20.8045 267.3 20.8451 267.3 20.8451L283.095 32.6405Z" fill="#F2F2F2"/>
<path id="Vector_57" d="M295.754 17.5589C294.973 17.8262 293.601 18.0449 292.014 18.2214C287.696 18.7015 281.779 18.872 281.779 18.872C281.779 18.872 251.371 21.2094 228.579 12.5166C228.579 12.5166 225.264 10.9056 228.343 8.73844C228.816 8.4141 229.32 8.12935 229.847 7.88754C229.847 7.88754 229.86 7.87553 229.885 7.85319C230.235 7.5534 230.613 7.28329 231.015 7.04611C232.195 6.33888 234.189 5.49978 236.616 5.87983L296.473 14.8523C296.473 14.8523 298.66 16.5643 295.754 17.5589Z" fill="#030024"/>
<path id="Vector_58" d="M283.827 13.4928L296.358 5.25308L301.882 6.13827L296.473 14.8523C296.473 14.8523 283.971 14.9445 283.827 13.4928Z" fill="#030024"/>
<path id="Vector_59" d="M252.277 8.48747L277.238 2L281.262 2.77909L269.987 7.47955L266.462 11.1332L252.277 8.48747Z" fill="#030024"/>
<path id="Vector_60" d="M292.014 18.2214C287.696 18.7015 281.779 18.872 281.779 18.872C281.779 18.872 251.371 21.2094 228.579 12.5166C228.579 12.5166 225.264 10.9056 228.343 8.73843L228.354 8.77804C228.354 8.77804 233.271 11.8583 256.769 14.4302L292.014 18.2214Z" fill="#5887FF"/>
<path id="Vector_61" d="M288.001 18.0433L299.161 22.2658L301.965 21.9773L295.289 17.3284C295.289 17.3284 287.215 15.7327 288.001 18.0433Z" fill="#030024"/>
<path id="Vector_62" d="M232.396 9.2291C231.863 9.23774 230.643 8.40979 229.885 7.8532C230.235 7.55341 230.613 7.2833 231.015 7.04611C231.626 7.48094 232.714 8.185 233.319 8.15994C234.193 8.1237 233.198 9.21625 232.396 9.2291Z" fill="#477A49"/>
<path id="Vector_63" d="M283.095 32.6405L275.93 32.9876L255.786 20.3993L252.047 18.0623L250.229 16.9266C253.637 14.257 267.541 17.9378 267.541 17.9378C267.807 18.146 267.892 18.4919 267.88 18.8739C267.857 19.5898 267.494 20.4324 267.354 20.7322C267.321 20.8045 267.3 20.8451 267.3 20.8451L283.095 32.6405Z" fill="#030024"/>
</g>
</g>
<defs>
<clipPath id="clip0_4_11">
<rect width="411" height="296" fill="white"/>
</clipPath>
</defs>
</svg>
