<svg width="147" height="172" viewBox="0 0 147 172" fill="none" xmlns="http://www.w3.org/2000/svg">
<circle cx="6" cy="6" r="6" fill="#F9898E"/>
<circle cx="6" cy="6" r="6" fill="#F9898E"/>
<circle cx="51" cy="6" r="6" fill="#F9898E"/>
<circle cx="51" cy="6" r="6" fill="#F9898E"/>
<circle cx="96" cy="6" r="6" fill="#F9898E"/>
<circle cx="96" cy="6" r="6" fill="#F9898E"/>
<circle cx="141" cy="6" r="6" fill="#F9898E"/>
<circle cx="141" cy="6" r="6" fill="#F9898E"/>
<circle cx="6" cy="38" r="6" fill="#F9898E"/>
<circle cx="51" cy="38" r="6" fill="#F9898E"/>
<circle cx="96" cy="38" r="6" fill="#F9898E"/>
<circle cx="141" cy="38" r="6" fill="#F9898E"/>
<circle cx="6" cy="70" r="6" fill="#F9898E"/>
<circle cx="51" cy="70" r="6" fill="#F9898E"/>
<circle cx="96" cy="70" r="6" fill="#F9898E"/>
<circle cx="141" cy="70" r="6" fill="#F9898E"/>
<circle cx="6" cy="102" r="6" fill="#F9898E"/>
<circle cx="51" cy="102" r="6" fill="#F9898E"/>
<circle cx="96" cy="102" r="6" fill="#F9898E"/>
<circle cx="141" cy="102" r="6" fill="#F9898E"/>
<circle cx="6" cy="134" r="6" fill="#F9898E"/>
<circle cx="51" cy="134" r="6" fill="#F9898E"/>
<circle cx="96" cy="134" r="6" fill="#F9898E"/>
<circle cx="141" cy="134" r="6" fill="#F9898E"/>
<circle cx="6" cy="166" r="6" fill="#F9898E"/>
<circle cx="51" cy="166" r="6" fill="#F9898E"/>
<circle cx="96" cy="166" r="6" fill="#F9898E"/>
<circle cx="141" cy="166" r="6" fill="#F9898E"/>
</svg>
