<svg width="24" height="24" viewBox="0 0 24 24" fill="none" xmlns="http://www.w3.org/2000/svg">
<path d="M12.0002 0C7.1102 0 3.13184 3.97829 3.13184 8.86834C3.13184 13.6027 11.2166 23.38 11.5608 23.7939C11.6694 23.9244 11.8304 24 12.0002 24C12.1699 24 12.331 23.9245 12.4396 23.7939C12.7838 23.38 20.8685 13.6027 20.8685 8.86834C20.8685 3.97829 16.8902 0 12.0002 0ZM12.0002 22.5218C11.2833 21.6266 9.79386 19.7194 8.31995 17.5391C5.67355 13.6245 4.27469 10.6262 4.27469 8.86834C4.27469 4.60846 7.74037 1.14286 12.0002 1.14286C16.26 1.14286 19.7257 4.60846 19.7257 8.86834C19.7257 10.6261 18.3269 13.6245 15.6804 17.5391C14.2064 19.7194 12.7171 21.6266 12.0002 22.5218Z" fill="white"/>
<path d="M14.9074 16.3015C14.6459 16.1248 14.2906 16.1936 14.114 16.4551C13.3429 17.5966 12.479 18.793 11.5465 20.0109C11.3546 20.2615 11.4022 20.6202 11.6528 20.812C11.7564 20.8914 11.8785 20.9298 11.9997 20.9298C12.1715 20.9298 12.3414 20.8526 12.4538 20.7057C13.4001 19.4699 14.2773 18.2551 15.061 17.0949C15.2377 16.8334 15.1689 16.4781 14.9074 16.3015Z" fill="white"/>
<path d="M12.0002 4.38098C9.41647 4.38098 7.31445 6.483 7.31445 9.0667C7.31445 11.6504 9.41647 13.7524 12.0002 13.7524C14.5839 13.7524 16.6859 11.6504 16.6859 9.0667C16.6859 6.483 14.5839 4.38098 12.0002 4.38098ZM12.0002 12.6096C10.0466 12.6096 8.45731 11.0202 8.45731 9.0667C8.45731 7.11317 10.0466 5.52384 12.0002 5.52384C13.9538 5.52384 15.543 7.11317 15.543 9.0667C15.543 11.0202 13.9538 12.6096 12.0002 12.6096Z" fill="white"/>
</svg>
