<svg width="202" height="75" viewBox="0 0 202 75" fill="none" xmlns="http://www.w3.org/2000/svg">
<g id="logo">
<path id="logo-text" d="M34.4688 14.125C33.8021 15.125 33.0104 16.0625 32.0938 16.9375C31.1771 17.8125 30.1667 18.5833 29.0625 19.25C27.9792 19.9167 26.8333 20.4479 25.625 20.8438C24.4167 21.2188 23.2083 21.4062 22 21.4062L21.2812 21.4688C20.4896 22.4688 19.8854 23.4375 19.4688 24.375C19.0521 25.3125 18.8438 26.4167 18.8438 27.6875V47.6562C18.8438 50.4271 18.25 52.8958 17.0625 55.0625C15.8958 57.2083 14.1667 59.0625 11.875 60.625L10.8438 59.4375C11.1979 59.0417 11.4792 58.5938 11.6875 58.0938C11.8958 57.5729 12.0521 57.0417 12.1562 56.5C12.2604 55.9583 12.3229 55.4167 12.3438 54.875C12.3854 54.3125 12.4062 53.7812 12.4062 53.2812V31.3125C12.4062 30.3333 12.6042 29.3854 13 28.4688C13.4167 27.5312 13.9375 26.6458 14.5625 25.8125C15.1875 24.9792 15.875 24.1979 16.625 23.4688C17.3958 22.7396 18.1354 22.0729 18.8438 21.4688L8.5 21.4062C7.70833 21.4062 7 21.4896 6.375 21.6562C5.77083 21.8021 5.20833 22.0208 4.6875 22.3125C4.16667 22.6042 3.66667 22.9688 3.1875 23.4062C2.70833 23.8438 2.21875 24.3542 1.71875 24.9375L0.8125 23.9688C1.5 23.0312 2.27083 22.0417 3.125 21C4 19.9583 4.9375 19.0104 5.9375 18.1562C6.95833 17.3021 8.04167 16.5938 9.1875 16.0312C10.3542 15.4688 11.5729 15.1875 12.8438 15.1875H26.3438C26.8854 15.1875 27.4896 15.1562 28.1562 15.0938C28.8438 15.0312 29.5312 14.9271 30.2188 14.7812C30.9062 14.6354 31.5521 14.4479 32.1562 14.2188C32.7812 13.9688 33.3021 13.6562 33.7188 13.2812L34.4688 14.125ZM98.5312 55.7188C98.2188 56.3229 97.8229 56.9062 97.3438 57.4688C96.8854 58.0312 96.3542 58.5312 95.75 58.9688C95.1667 59.3854 94.5417 59.7292 93.875 60C93.2083 60.25 92.5208 60.375 91.8125 60.375C90.6667 60.375 89.6562 60.1562 88.7812 59.7188C87.9062 59.2812 87.1771 58.6979 86.5938 57.9688C86.0104 57.2188 85.5729 56.3646 85.2812 55.4062C84.9896 54.4479 84.8438 53.4375 84.8438 52.375V48.6875C84.4271 50.2292 83.875 51.7188 83.1875 53.1562C82.5 54.5729 81.6458 55.8438 80.625 56.9688C79.6042 58.0729 78.4062 58.9583 77.0312 59.625C75.6771 60.2917 74.125 60.625 72.375 60.625C71.0417 60.625 69.8958 60.3854 68.9375 59.9062C67.9792 59.4062 67.1875 58.7396 66.5625 57.9062C65.9375 57.0729 65.4792 56.1146 65.1875 55.0312C64.8958 53.9271 64.75 52.7708 64.75 51.5625V17.0625L71.2188 14.75V49.25C71.2188 50 71.2292 50.8333 71.25 51.75C71.2708 52.6667 71.3958 53.5208 71.625 54.3125C71.8542 55.1042 72.25 55.7708 72.8125 56.3125C73.375 56.8542 74.1875 57.125 75.25 57.125C76.4375 57.125 77.4896 56.7708 78.4062 56.0625C79.3438 55.3333 80.1667 54.3958 80.875 53.25C81.6042 52.0833 82.2188 50.7708 82.7188 49.3125C83.2188 47.8542 83.625 46.4062 83.9375 44.9688C84.25 43.5104 84.4792 42.125 84.625 40.8125C84.7708 39.4792 84.8438 38.3646 84.8438 37.4688V17.0625L91.3125 14.75V53.4062C91.3125 53.8229 91.3542 54.2396 91.4375 54.6562C91.5208 55.0729 91.6667 55.4479 91.875 55.7812C92.0833 56.0938 92.3542 56.3542 92.6875 56.5625C93.0208 56.7708 93.4375 56.875 93.9375 56.875C94.6458 56.875 95.3125 56.6667 95.9375 56.25C96.5833 55.8333 97.1146 55.3542 97.5312 54.8125L98.5312 55.7188ZM117.594 56.5938C117.219 57.1771 116.76 57.7083 116.219 58.1875C115.677 58.6458 115.083 59.0417 114.438 59.375C113.792 59.7083 113.115 59.9688 112.406 60.1562C111.698 60.3438 111 60.4375 110.312 60.4375C109.396 60.4375 108.604 60.2708 107.938 59.9375C107.292 59.5833 106.76 59.125 106.344 58.5625C105.927 58 105.615 57.3438 105.406 56.5938C105.219 55.8438 105.125 55.0625 105.125 54.25C105.125 53.1875 105.281 52.0521 105.594 50.8438C105.927 49.6146 106.365 48.4062 106.906 47.2188C107.469 46.0312 108.104 44.9271 108.812 43.9062C109.521 42.8854 110.271 42.0417 111.062 41.375C110.333 41.8542 109.531 42.2292 108.656 42.5C107.802 42.7708 106.927 42.9062 106.031 42.9062C105.385 42.9062 104.823 42.8542 104.344 42.75C103.865 42.6458 103.333 42.4479 102.75 42.1562L99.5 48.9375L98.1562 48.4062L101.531 41.5C101.177 41.25 100.792 40.9375 100.375 40.5625C99.9792 40.1667 99.6875 39.7812 99.5 39.4062L103.844 34.5312C104.031 35.0938 104.292 35.6667 104.625 36.25C104.958 36.8125 105.344 37.3229 105.781 37.7812C106.24 38.2188 106.74 38.5833 107.281 38.875C107.844 39.1667 108.448 39.3125 109.094 39.3125C110.198 39.3125 111.271 39.1146 112.312 38.7188C113.354 38.3021 114.323 37.8021 115.219 37.2188L116.062 38.0625C115.271 38.7917 114.469 39.6042 113.656 40.5C112.865 41.375 112.146 42.3125 111.5 43.3125C110.854 44.3125 110.333 45.3646 109.938 46.4688C109.542 47.5729 109.344 48.6875 109.344 49.8125C109.344 50.4583 109.427 51.1875 109.594 52C109.781 52.7917 110.062 53.5521 110.438 54.2812C110.812 54.9896 111.281 55.5938 111.844 56.0938C112.406 56.5729 113.083 56.8125 113.875 56.8125C114.417 56.8125 114.938 56.7188 115.438 56.5312C115.958 56.3229 116.427 56.0729 116.844 55.7812L117.594 56.5938ZM128.406 19.2188L126.75 30.625L123.688 31.5938L121.812 21.4688L128.406 19.2188ZM132.719 56.3438C132.24 57.3646 131.677 58.1458 131.031 58.6875C130.406 59.2292 129.802 59.625 129.219 59.875C128.531 60.1667 127.833 60.3333 127.125 60.375C126.208 60.375 125.448 60.2292 124.844 59.9375C124.24 59.6458 123.76 59.2604 123.406 58.7812C123.052 58.3021 122.802 57.7604 122.656 57.1562C122.531 56.5521 122.469 55.9375 122.469 55.3125V37.7812L128.219 35.8125V55.4688C128.219 55.9688 128.333 56.3646 128.562 56.6562C128.792 56.9479 129.083 57.1042 129.438 57.125C129.812 57.125 130.208 56.9896 130.625 56.7188C131.062 56.4479 131.479 56.0104 131.875 55.4062L132.719 56.3438ZM150.406 51.375C150.406 52.6667 150.167 53.875 149.688 55C149.208 56.125 148.552 57.1042 147.719 57.9375C146.906 58.7708 145.927 59.4271 144.781 59.9062C143.656 60.3854 142.438 60.625 141.125 60.625C140.562 60.625 139.948 60.5729 139.281 60.4688C138.635 60.3646 137.99 60.2083 137.344 60C136.698 59.7917 136.083 59.5312 135.5 59.2188C134.938 58.9062 134.469 58.5312 134.094 58.0938L137.781 53.2812C138.031 53.6771 138.333 54.1146 138.688 54.5938C139.062 55.0521 139.469 55.4792 139.906 55.875C140.365 56.2708 140.844 56.6042 141.344 56.875C141.865 57.125 142.385 57.25 142.906 57.25C143.51 57.25 144.073 57.1458 144.594 56.9375C145.135 56.7292 145.604 56.4375 146 56.0625C146.396 55.6667 146.708 55.2083 146.938 54.6875C147.167 54.1667 147.281 53.5938 147.281 52.9688C147.281 52.1354 146.99 51.375 146.406 50.6875C145.844 49.9792 145.167 49.3021 144.375 48.6562C143.604 47.9896 142.792 47.3125 141.938 46.625C141.104 45.9167 140.427 45.1458 139.906 44.3125L136.656 49.0625L135.438 48.1562L139.188 42.9688C138.896 42.3646 138.667 41.7292 138.5 41.0625C138.333 40.3958 138.25 39.7292 138.25 39.0625C138.25 38.5 138.344 37.9062 138.531 37.2812C138.719 36.6562 138.99 36.0833 139.344 35.5625C139.698 35.0417 140.125 34.6146 140.625 34.2812C141.146 33.9271 141.74 33.75 142.406 33.75C143.052 33.75 143.594 33.9479 144.031 34.3438C144.49 34.7396 144.719 35.2917 144.719 36C144.719 36.375 144.656 36.75 144.531 37.125C144.406 37.5 144.25 37.875 144.062 38.25C143.875 38.625 143.667 38.9896 143.438 39.3438C143.208 39.6771 142.99 39.9896 142.781 40.2812C143.281 40.9896 143.823 41.6042 144.406 42.125C144.99 42.6458 145.562 43.1354 146.125 43.5938C146.688 44.0521 147.229 44.5104 147.75 44.9688C148.271 45.4271 148.719 45.9479 149.094 46.5312C149.49 47.1146 149.802 47.7917 150.031 48.5625C150.281 49.3333 150.406 50.2708 150.406 51.375ZM143.312 36.5625C143.312 36.2708 143.208 36.0521 143 35.9062C142.812 35.7604 142.594 35.6875 142.344 35.6875C141.99 35.6875 141.74 35.8125 141.594 36.0625C141.448 36.2917 141.375 36.5521 141.375 36.8438C141.375 37.2604 141.438 37.6667 141.562 38.0625C141.708 38.4583 141.885 38.8333 142.094 39.1875C142.177 39.0417 142.281 38.8542 142.406 38.625C142.552 38.3958 142.688 38.1562 142.812 37.9062C142.958 37.6354 143.073 37.3854 143.156 37.1562C143.26 36.9062 143.312 36.7083 143.312 36.5625ZM166.469 56.3438C165.99 57.3646 165.438 58.1458 164.812 58.6875C164.188 59.2292 163.573 59.625 162.969 59.875C162.281 60.1667 161.573 60.3333 160.844 60.375C159.906 60.375 159.135 60.2292 158.531 59.9375C157.948 59.6458 157.479 59.2604 157.125 58.7812C156.792 58.3021 156.552 57.7604 156.406 57.1562C156.281 56.5521 156.219 55.9375 156.219 55.3125V38.9375H152.906L154.25 35.8125H156.219V24.75L161.938 22.75V35.8125H167.875L166.594 38.9375H161.938V55.4688C161.938 55.9688 162.052 56.3646 162.281 56.6562C162.51 56.9479 162.802 57.1042 163.156 57.125C163.51 57.125 163.906 56.9896 164.344 56.7188C164.781 56.4479 165.208 56.0104 165.625 55.4062L166.469 56.3438Z" fill="black"/>
<g id="location">
<path id="Vector" d="M136 18.9844C136 23.9463 125.5 35 125.5 35C125.5 35 115 23.9463 115 18.9844C115 16.6016 116.106 14.3164 118.075 12.6315C120.045 10.9466 122.715 10 125.5 10C128.285 10 130.955 10.9466 132.925 12.6315C134.894 14.3164 136 16.6016 136 18.9844Z" fill="black"/>
<path id="Vector_2" d="M130.3 18.5937C130.3 19.406 130.019 20.2001 129.491 20.8755C128.964 21.5509 128.214 22.0774 127.337 22.3882C126.46 22.6991 125.495 22.7804 124.564 22.6219C123.633 22.4635 122.777 22.0723 122.106 21.4979C121.435 20.9235 120.978 20.1917 120.792 19.395C120.607 18.5983 120.702 17.7725 121.066 17.022C121.429 16.2715 122.044 15.6301 122.833 15.1788C123.623 14.7275 124.551 14.4866 125.5 14.4866C126.131 14.4863 126.755 14.5924 127.337 14.7987C127.92 15.005 128.449 15.3075 128.895 15.689C129.341 16.0704 129.694 16.5233 129.935 17.0217C130.176 17.5201 130.3 18.0543 130.3 18.5937Z" fill="white"/>
</g>
<g id="1sto">
<g clip-path="url(#clip0_150_116)">
<path id="Vector_3" d="M50.0245 41.1364C51.8274 41.1364 53.2889 39.7844 53.2889 38.1166C53.2889 36.4489 51.8274 35.0969 50.0245 35.0969C48.2216 35.0969 46.7601 36.4489 46.7601 38.1166C46.7601 39.7844 48.2216 41.1364 50.0245 41.1364Z" fill="#FF6584"/>
<path id="Vector_4" d="M58.979 40.3681C58.9862 40.3669 58.9916 40.3622 59 40.3634C58.9963 40.3504 58.9915 40.3376 58.9857 40.3252C58.9753 40.3383 58.9647 40.3517 58.9554 40.3634L58.979 40.3681Z" fill="white"/>
<path id="Vector_5" d="M37.0839 45.2637C37.103 45.9225 37.2223 46.5755 37.4383 47.2036C37.4432 47.2181 37.4484 47.2325 37.4536 47.2471H38.7761C38.7747 47.234 38.7733 47.2194 38.7719 47.2036C38.6837 46.2658 38.1753 40.5583 38.7832 39.5823C38.73 39.6615 36.9814 42.284 37.0839 45.2637Z" fill="#E6E6E6"/>
<path id="Vector_6" d="M37.1832 47.2037C37.1942 47.2183 37.2057 47.2329 37.2175 47.2472H38.2096C38.2021 47.2348 38.1934 47.2203 38.1833 47.2037C38.0194 46.9301 37.5343 46.112 37.0839 45.2638C36.6 44.3524 36.156 43.4064 36.1934 43.064C36.1819 43.1412 35.847 45.4953 37.1832 47.2037Z" fill="#E6E6E6"/>
<path id="Vector_7" d="M47.4927 47.3606C47.4761 47.935 47.3721 48.5043 47.1838 49.0518C47.1795 49.0645 47.1749 49.0771 47.1704 49.0898H46.0174C46.0187 49.0784 46.0199 49.0657 46.0211 49.0518C46.098 48.2343 46.5412 43.2584 46.0113 42.4075C46.0576 42.4765 47.5821 44.7628 47.4927 47.3606Z" fill="#E6E6E6"/>
<path id="Vector_8" d="M47.4062 49.0517C47.3966 49.0644 47.3866 49.0771 47.3763 49.0897H46.5114C46.5179 49.0789 46.5255 49.0661 46.5343 49.0517C46.6772 48.8132 47.1001 48.0999 47.4927 47.3605C47.9147 46.5659 48.3017 45.7411 48.2691 45.4426C48.2792 45.5099 48.5711 47.5623 47.4062 49.0517Z" fill="#E6E6E6"/>
<path id="Vector_9" d="M34.3097 30.451L34.8474 30.0532C34.4297 30.0105 34.258 30.2213 34.1878 30.3881C33.8615 30.2627 33.5062 30.427 33.5062 30.427L34.582 30.7883C34.5278 30.6542 34.4333 30.5372 34.3097 30.451Z" fill="#3F3D56"/>
<path id="Vector_10" d="M50.5044 28.4034L51.0421 28.0056C50.6244 27.9629 50.4527 28.1737 50.3825 28.3405C50.0562 28.2151 49.7009 28.3794 49.7009 28.3794L50.7767 28.7407C50.7225 28.6066 50.628 28.4896 50.5044 28.4034Z" fill="#3F3D56"/>
<path id="Vector_11" d="M58.4155 44.1348C58.4155 44.4644 58.4031 44.7913 58.3782 45.1156C58.1867 47.6736 57.2279 50.1315 55.6094 52.2132C55.3979 52.4862 55.1759 52.7516 54.9432 53.0093C54.3404 53.6781 53.6711 54.2931 52.9441 54.8463L49.7574 53.1165L47.8521 49.0029C47.8521 49.0029 50.6949 43.6784 58.4104 43.775C58.4136 43.8945 58.4153 44.0144 58.4155 44.1348Z" fill="#3F3D56"/>
<path id="Vector_12" d="M58.3782 45.1155C58.2316 47.027 57.6583 48.8897 56.6944 50.5859C55.7306 52.2822 54.3971 53.7752 52.7781 54.9708L49.8176 53.364L48.1279 49.7157C48.1279 49.7157 50.8659 44.5877 58.3782 45.1155Z" fill="#6C63FF"/>
<path id="Vector_13" d="M55.6094 52.2133C55.3979 52.4864 55.1758 52.7517 54.9432 53.0095C53.3843 54.7421 51.3924 56.0971 49.1399 56.9572C48.6838 57.1312 48.2169 57.2846 47.7394 57.4174C44.2911 58.2657 40.6378 58.0511 37.3332 56.8062C34.065 55.4569 31.4239 53.0738 29.8843 50.085C29.6774 49.6827 29.4914 49.2701 29.3262 48.8474C32.2076 46.8948 37.8854 44.0988 44.0736 46.8157C45.7853 47.5672 47.3138 48.2522 48.6589 48.8708C52.0723 50.4359 54.3441 51.5643 55.6094 52.2133Z" fill="#3F3D56"/>
<path id="Vector_14" d="M54.9432 53.0093C53.3317 54.7958 51.2604 56.1788 48.9199 57.0309C46.5794 57.8831 44.0448 58.177 41.5493 57.8858C39.0538 57.5946 36.6775 56.7275 34.6391 55.3643C32.6007 54.0011 30.9656 52.1856 29.8843 50.0849C32.2908 48.3245 37.8413 45.161 43.9324 47.835C45.4989 48.5227 46.8974 49.1496 48.1279 49.7157C51.7151 51.3604 53.9248 52.4781 54.9432 53.0093Z" fill="#6C63FF"/>
<path id="Vector_15" d="M50.6957 56.2634C50.1918 56.5218 49.6723 56.7534 49.1398 56.9571C47.3278 57.6478 45.3865 58.0022 43.4266 57.9999C41.1075 57.9991 38.8201 57.5009 36.7442 56.5445C34.6683 55.5881 32.8603 54.1996 31.4623 52.4879C35.0421 52.1387 44.9375 51.6679 50.6957 56.2634Z" fill="#3F3D56"/>
<path id="Vector_16" d="M49.1399 56.9572C46.3301 58.0259 43.2357 58.2805 40.266 57.6872C37.2964 57.0939 34.5914 55.6808 32.5088 53.6346C33.8109 53.4577 44.0336 52.2426 49.1399 56.9572Z" fill="#6C63FF"/>
<path id="Vector_17" d="M55.9013 36.4462V36.4466C45.1986 29.1265 32.9363 34.2788 32.8416 34.3183V34.3179C34.2315 33.0324 35.8818 32.0131 37.6982 31.3185C39.5145 30.6238 41.4612 30.2675 43.4266 30.2698C48.63 30.2698 53.2139 32.7226 55.9013 36.4462Z" fill="#E6E6E6"/>
<path id="Vector_18" d="M33.7 44.4037C35.5106 44.1017 36.4384 41.0866 35.7723 37.6693C35.1063 34.252 33.0986 31.7265 31.288 32.0284C29.4774 32.3304 28.5497 35.3455 29.2157 38.7628C29.8818 42.1801 31.8895 44.7056 33.7 44.4037Z" fill="#3F3D56"/>
<path id="Vector_19" d="M34.1654 48.3946C34.058 40.8884 31.3431 33.8444 31.3157 33.7742L31.0681 33.8568C31.0953 33.9267 33.7954 40.9338 33.9022 48.3979L34.1654 48.3946Z" fill="#6C63FF"/>
<path id="Vector_20" d="M29.3485 37.3669L29.2675 37.5986L32.5178 38.571L32.5988 38.3393L29.3485 37.3669Z" fill="#6C63FF"/>
<path id="Vector_21" d="M35.4627 37.1059L32.7846 39.0679L32.9481 39.2588L35.6261 37.2968L35.4627 37.1059Z" fill="#6C63FF"/>
<path id="Vector_22" d="M42.4059 43.3214C44.3967 43.3214 46.0105 40.2754 46.0105 36.5179C46.0105 32.7604 44.3967 29.7144 42.4059 29.7144C40.4151 29.7144 38.8013 32.7604 38.8013 36.5179C38.8013 40.2754 40.4151 43.3214 42.4059 43.3214Z" fill="#3F3D56"/>
<path id="Vector_23" d="M42.073 47.6541C43.5167 39.6416 42.0876 31.658 42.0729 31.5784L41.7921 31.6224C41.8067 31.7016 43.2276 39.6433 41.7921 47.6109L42.073 47.6541Z" fill="#6C63FF"/>
<path id="Vector_24" d="M39.2323 35.055L39.098 35.2874L42.3575 36.9001L42.4919 36.6678L39.2323 35.055Z" fill="#6C63FF"/>
<path id="Vector_25" d="M45.7977 35.8629L42.5385 37.4766L42.6729 37.7089L45.9321 36.0952L45.7977 35.8629Z" fill="#6C63FF"/>
<path id="Vector_26" d="M58.0632 41.133C56.7407 40.4461 55.3589 39.8617 53.9321 39.3858C46.0428 36.7451 38.2197 37.7628 35.1575 41.5421C37.5406 36.9122 46.0437 35.4564 54.6246 38.3285C55.6233 38.6625 56.6006 39.0487 57.552 39.4853C57.7592 40.0242 57.93 40.5745 58.0632 41.133Z" fill="#E6E6E6"/>
<path id="Vector_27" d="M47.4082 33.6824L47.9459 33.2846C47.5282 33.242 47.3566 33.4527 47.2863 33.6195C46.96 33.4942 46.6047 33.6584 46.6047 33.6584L47.6805 34.0197C47.6263 33.8856 47.5318 33.7686 47.4082 33.6824Z" fill="#3F3D56"/>
</g>
<rect x="28.5" y="27.5" width="31" height="31" rx="15.5" stroke="black"/>
</g>
<g id="2ndo">
<path id="XMLID_421_" d="M199.003 33.1208C199.003 31.6892 197.838 30.5244 196.406 30.5244C194.974 30.5244 193.81 31.6892 193.81 33.1208C193.81 34.5524 194.974 35.7172 196.406 35.7172C197.838 35.7172 199.003 34.5524 199.003 33.1208ZM195.179 33.1208C195.179 32.4444 195.73 31.8942 196.406 31.8942C197.082 31.8942 197.633 32.4444 197.633 33.1208C197.633 33.7971 197.082 34.3474 196.406 34.3474C195.73 34.3474 195.179 33.7971 195.179 33.1208ZM194.542 42.2025C194.812 42.7685 195.219 43.6238 196.406 43.6238C197.592 43.6238 198 42.7687 198.27 42.2029C198.305 42.1296 198.983 40.7908 198.983 40.7908C200.443 37.9221 202 34.7269 202 33.1208C202 30.0363 199.49 27.5269 196.406 27.5269C193.321 27.5269 190.812 30.0363 190.812 33.1208C190.812 34.7272 192.369 37.9222 193.829 40.7908C193.829 40.7908 194.507 42.1293 194.542 42.2025ZM196.406 28.8966C198.735 28.8966 200.63 30.7915 200.63 33.1208C200.63 34.5331 198.693 38.3401 197.762 40.1697C197.762 40.1697 197.073 41.5309 197.034 41.6132C196.76 42.1881 196.695 42.254 196.406 42.254C196.117 42.254 196.053 42.1881 195.778 41.613C195.739 41.5308 195.05 40.1696 195.05 40.1696C194.119 38.3402 192.182 34.5333 192.182 33.1208C192.182 30.7915 194.077 28.8966 196.406 28.8966ZM199.139 43.376C198.761 43.376 198.455 43.6826 198.455 44.0609C198.455 45.1757 198.324 46.2603 198.077 47.3008C195.404 47.8753 192.65 48.2768 189.842 48.5024C189.95 47.0715 190.006 45.5813 190.006 44.061C190.006 42.746 189.964 41.4541 189.883 40.203C190.099 40.1834 190.315 40.1626 190.53 40.1406C190.906 40.1022 191.18 39.766 191.141 39.3897C191.103 39.0135 190.766 38.7389 190.39 38.778C190.187 38.7988 189.983 38.8185 189.778 38.8372C189.488 35.6071 188.931 32.7185 188.163 30.5252C188.433 30.5997 188.7 30.6824 188.965 30.7733C189.323 30.8956 189.713 30.7051 189.835 30.3473C189.958 29.9894 189.767 29.6 189.409 29.4774C187.805 28.9276 186.123 28.6488 184.412 28.6488C183.481 28.6488 182.568 28.7319 181.682 28.8911C181.662 28.8938 181.642 28.8974 181.622 28.9019C176.557 29.8315 172.35 33.2463 170.316 37.8302C170.295 37.8682 170.277 37.9086 170.263 37.9513C169.451 39.8254 169 41.8916 169 44.0609C169 45.4292 169.179 46.7566 169.516 48.0206C169.521 48.0447 169.527 48.0683 169.535 48.0916C171.073 53.7632 175.776 58.1468 181.622 59.22C181.642 59.2245 181.662 59.2281 181.682 59.2309C182.568 59.39 183.481 59.473 184.412 59.473C185.344 59.473 186.256 59.3899 187.143 59.2307C187.163 59.228 187.182 59.2245 187.201 59.22C193.048 58.1468 197.752 53.7623 199.29 48.09C199.297 48.0678 199.303 48.0451 199.308 48.0221C199.645 46.7578 199.824 45.4297 199.824 44.0609C199.824 43.6826 199.518 43.376 199.139 43.376ZM188.636 44.0609C188.636 45.6201 188.577 47.144 188.463 48.5987C187.123 48.6784 185.771 48.7184 184.412 48.7184C183.053 48.7184 181.702 48.6784 180.362 48.5987C180.247 47.144 180.188 45.62 180.188 44.0609C180.188 42.7816 180.228 41.5258 180.305 40.3128C181.655 40.4032 183.024 40.4485 184.412 40.4485C185.787 40.4485 187.162 40.4023 188.519 40.3108C188.596 41.5245 188.636 42.7808 188.636 44.0609ZM182.255 30.184C182.958 30.0751 183.679 30.0185 184.412 30.0185C185.138 30.0185 185.859 30.0736 186.569 30.183C187.457 32.328 188.098 35.4145 188.414 38.9451C187.092 39.0339 185.753 39.0788 184.412 39.0788C183.06 39.0788 181.724 39.0347 180.41 38.947C180.726 35.4163 181.366 32.3294 182.255 30.184ZM180.66 30.5275C179.893 32.721 179.336 35.6101 179.046 38.8396C176.578 38.6155 174.188 38.2345 171.895 37.6989C173.666 34.2295 176.838 31.5885 180.66 30.5275ZM179.605 53.4605C177.848 52.5582 176.375 51.1778 175.36 49.4919C176.596 49.6576 177.845 49.789 179.104 49.8858C179.231 51.1412 179.399 52.3396 179.605 53.4605ZM170.37 44.0609C170.37 42.2669 170.708 40.55 171.324 38.9714C173.763 39.5551 176.31 39.9674 178.941 40.2055C178.86 41.4555 178.818 42.7471 178.818 44.061C178.818 45.5812 178.874 47.0716 178.982 48.5024C177.511 48.3842 176.055 48.2178 174.617 48.0034C174.125 46.7847 173.854 45.3806 173.854 44.061C173.854 43.6827 173.547 43.3761 173.169 43.3761C172.79 43.3761 172.484 43.6827 172.484 44.061C172.484 45.3488 172.689 46.5899 173.068 47.7528C172.288 47.6164 171.514 47.4658 170.747 47.3009C170.5 46.2603 170.37 45.1757 170.37 44.0609ZM171.19 48.7924C172.01 48.9583 172.836 49.1082 173.669 49.2424C174.956 51.9003 177.2 54.0109 179.951 55.1241C180.162 56.0189 180.398 56.8468 180.66 57.5942C176.259 56.3725 172.72 53.0568 171.19 48.7924ZM186.569 57.9378C185.866 58.0467 185.146 58.1032 184.412 58.1032C183.679 58.1032 182.958 58.0467 182.255 57.9378C181.973 57.2568 181.716 56.4811 181.486 55.6263C182.423 55.8635 183.403 55.9893 184.412 55.9893C184.79 55.9893 185.097 55.6827 185.097 55.3044C185.097 54.9262 184.79 54.6196 184.412 54.6196C183.264 54.6196 182.158 54.4353 181.122 54.0947C180.857 52.8354 180.644 51.4503 180.488 49.9782C183.086 50.1247 185.738 50.1247 188.336 49.9782C187.999 53.1728 187.39 55.9568 186.569 57.9378ZM188.164 57.5943C188.883 55.5383 189.417 52.8717 189.72 49.8859C192.413 49.6789 195.058 49.3136 197.634 48.7925C196.104 53.0568 192.565 56.3725 188.164 57.5943Z" fill="black"/>
</g>
<g id="plane">
<path id="Vector_28" d="M168.052 20.0008L168.078 20.0072C168.078 20.0072 167.875 19.3759 171.95 20.1746L173.371 18.9069L173.203 18.8649C172.951 18.8022 172.798 18.5473 172.861 18.2956C172.923 18.0439 173.178 17.8908 173.43 17.9535L174.244 18.1566L174.916 17.598L174.854 17.5824C174.602 17.5197 174.449 17.2648 174.511 17.0131C174.574 16.7615 174.829 16.6083 175.081 16.6711L175.845 16.8615C176.619 16.2692 177.315 15.8024 177.757 15.6442C177.757 15.6442 178.554 15.843 178.441 16.2988C178.441 16.2988 175.741 19.2333 174.66 20.7796C178.771 21.7686 178.701 22.0508 178.701 22.0508C178.701 22.0508 180.038 20.5692 180.949 20.7964L179.698 22.9045L179.672 22.8981L179.788 25.347C178.876 25.1198 178.391 23.1837 178.391 23.1837C178.391 23.1837 178.321 23.4659 174.226 22.409C174.455 24.282 175.461 28.1404 175.461 28.1404C175.347 28.5961 174.55 28.3972 174.55 28.3972C174.234 28.0501 173.839 27.3113 173.433 26.4247L172.669 26.2342C172.417 26.1715 172.264 25.9166 172.327 25.6649C172.39 25.4133 172.645 25.2601 172.896 25.3228L172.959 25.3384L172.628 24.5299L171.814 24.3269C171.562 24.2641 171.409 24.0092 171.472 23.7576C171.534 23.5059 171.789 23.3527 172.041 23.4155L172.209 23.4575L171.549 21.6709C167.577 20.4633 168.052 20.0008 168.052 20.0008Z" fill="black"/>
</g>
<g id="bag">
<path id="Vector_29" d="M15.0172 13.0795L15.2956 13.1551L17.1638 7.97897C17.0874 7.9621 17.0064 7.97125 16.9376 8.00453C16.8687 8.0378 16.8172 8.09268 16.7935 8.15789L15.0172 13.0795Z" fill="#3F3D56"/>
<path id="Vector_30" d="M21.157 6.32749H19.9254V3.18872H21.157C21.3926 3.18895 21.6185 3.27021 21.7851 3.41467C21.9517 3.55913 22.0454 3.75499 22.0457 3.95929V5.55692C22.0454 5.76122 21.9517 5.95708 21.7851 6.10154C21.6185 6.246 21.3926 6.32726 21.157 6.32749Z" fill="#2F2E41"/>
<path id="Vector_31" d="M20.9856 4.64629C20.9445 4.64626 20.905 4.63207 20.8759 4.60685C20.8468 4.58163 20.8305 4.54744 20.8304 4.51178V3.34595H21.1407V4.51178C21.1407 4.54744 21.1243 4.58163 21.0952 4.60685C21.0662 4.63207 21.0267 4.64626 20.9856 4.64629Z" fill="#3F3D56"/>
<path id="Vector_32" d="M21.3586 6.08104H20.4575C20.4056 6.08098 20.3558 6.06308 20.3191 6.03124C20.2824 5.9994 20.2617 5.95623 20.2617 5.9112V5.44376C20.2617 5.39873 20.2824 5.35557 20.3191 5.32373C20.3558 5.29189 20.4056 5.27398 20.4575 5.27393H21.3586C21.4106 5.27398 21.4604 5.29189 21.4971 5.32373C21.5338 5.35557 21.5544 5.39873 21.5545 5.44376V5.9112C21.5544 5.95623 21.5338 5.9994 21.4971 6.03124C21.4604 6.06308 21.4106 6.08099 21.3586 6.08104Z" fill="#3F3D56"/>
<path id="Vector_33" d="M18.7312 2.86218C18.71 2.86219 18.6895 2.85584 18.6731 2.84421C18.663 2.83704 18.6546 2.82813 18.6486 2.81803C18.6426 2.80793 18.6391 2.79687 18.6383 2.78554C18.6092 2.3833 18.6898 1.98078 18.8735 1.61057C18.998 1.36066 19.1412 1.19963 19.3242 1.10379C19.5683 0.975948 19.9033 0.965733 20.2432 1.07577C20.4375 1.13866 20.5776 1.22086 20.6715 1.32706C20.7969 1.46876 20.8362 1.65055 20.86 1.82589C20.8959 2.09119 20.9044 2.35874 20.8852 2.62534C20.8843 2.63912 20.8793 2.65245 20.8705 2.66397C20.8618 2.67549 20.8496 2.68479 20.8354 2.69091C20.82 2.69745 20.8028 2.70037 20.7857 2.69939C20.7686 2.69842 20.752 2.69357 20.7377 2.68534C20.732 2.68207 20.7261 2.67905 20.7199 2.6763C20.689 2.66284 20.6547 2.65601 20.6201 2.65639C20.5855 2.65677 20.5514 2.66435 20.5209 2.67848C20.4984 2.69 20.4772 2.7032 20.4575 2.71794L20.3353 2.80373C20.3202 2.8141 20.3018 2.82023 20.2826 2.82129C20.2634 2.82234 20.2442 2.81827 20.2278 2.80963C20.1391 2.76596 20.0401 2.74059 19.9383 2.73551C19.8032 2.73115 19.6679 2.73966 19.5349 2.7609L18.745 2.8613C18.7404 2.86188 18.7358 2.86218 18.7312 2.86218Z" fill="#2F2E41"/>
<path id="Vector_34" d="M18.6257 14.2853H18.2038L18.0032 12.8745H18.6258L18.6257 14.2853Z" fill="#FFB6B6"/>
<path id="Vector_35" d="M18.8527 14.98H18.5534L18.4999 14.735L18.3631 14.98H17.5692C17.5312 14.98 17.4941 14.9694 17.4635 14.9499C17.4328 14.9303 17.4102 14.9028 17.3988 14.8713C17.3875 14.8398 17.3881 14.806 17.4005 14.7748C17.4129 14.7436 17.4365 14.7167 17.4678 14.6979L18.1018 14.3183V14.0706L18.7686 14.1051L18.8527 14.98Z" fill="#2F2E41"/>
<path id="Vector_36" d="M23.4804 13.9724L23.0915 14.1141L22.2758 12.8811L22.8498 12.6719L23.4804 13.9724Z" fill="#FFB6B6"/>
<path id="Vector_37" d="M24 14.5363L23.7241 14.6369L23.5653 14.429L23.5487 14.7009L22.8169 14.9677C22.7818 14.9805 22.7429 14.9832 22.7059 14.9755C22.6689 14.9678 22.6357 14.95 22.6112 14.9247C22.5867 14.8995 22.5721 14.8681 22.5696 14.8352C22.5671 14.8023 22.5768 14.7695 22.5973 14.7417L23.012 14.1787L22.9012 13.9504L23.5314 13.7581L24 14.5363Z" fill="#2F2E41"/>
<path id="Vector_38" d="M18.4287 4.67715L18.3078 6.08135L17.5061 8.17837L17.1841 8.01609L17.6209 5.88341L17.7692 4.65308L18.4287 4.67715Z" fill="#FFB6B6"/>
<path id="Vector_39" d="M17.319 8.48431C17.5053 8.48431 17.6564 8.35332 17.6564 8.19174C17.6564 8.03016 17.5053 7.89917 17.319 7.89917C17.1326 7.89917 16.9816 8.03016 16.9816 8.19174C16.9816 8.35332 17.1326 8.48431 17.319 8.48431Z" fill="#FFB6B6"/>
<path id="Vector_40" d="M20.4858 6.29446V6.6818C20.4858 6.6818 21.1772 7.73831 20.8957 8.1917L21.9338 10.6539C21.9338 10.6539 23.3416 11.8745 23.2209 12.7464L23.3013 13.0254L22.3762 13.3742L22.1751 13.1301L20.6065 10.7934L19.2791 8.66599L19.0378 11.177C19.0378 11.177 19.1987 13.1301 18.7562 13.3393L18.716 13.6532H17.7771V13.3548C17.7771 13.3548 17.4289 12.293 17.63 11.4909L17.5496 8.10798C17.5496 8.10798 17.9116 6.67809 18.354 6.43396L18.5149 6.08521L20.4858 6.29446Z" fill="#2F2E41"/>
<path id="Vector_41" d="M21.2245 3.60942L20.3477 3.25348L20.0947 2.87109L19.2437 2.91293L18.9862 3.2774L18.2287 3.41046L18.34 5.78423C18.2905 5.85867 18.2728 5.9459 18.2901 6.03054C18.3167 6.17931 18.4517 6.06228 18.3167 6.17931C18.1817 6.29634 18.08 6.23752 18.1478 6.34007C18.2155 6.44262 18.0489 6.6025 18.0489 6.6025C18.0489 6.6025 20.2036 7.55408 20.8123 6.34007C20.8123 6.34007 20.9323 5.98497 20.7296 5.24101C20.5268 4.49704 21.2245 3.60942 21.2245 3.60942Z" fill="#E4E4E4"/>
<path id="Vector_42" d="M18.4777 3.56157L18.2288 3.4104C18.2288 3.4104 17.8845 3.53295 17.8729 3.78091C17.8612 4.02887 17.6633 4.77091 17.6633 4.77091L18.4493 5.13729L18.4777 3.56157Z" fill="#E4E4E4"/>
<path id="Vector_43" d="M21.4317 4.7941L21.3108 6.19826L19.9692 7.94423L19.6473 7.78196L20.6239 6.00035L20.7723 4.77002L21.4317 4.7941Z" fill="#FFB6B6"/>
<path id="Vector_44" d="M20.8145 3.68875L21.2246 3.60938C21.2246 3.60938 21.4717 3.67781 21.5055 3.99963C21.5392 4.32146 21.5675 4.88157 21.5675 4.88157L20.7069 5.43034L20.4932 4.64328L20.8145 3.68875Z" fill="#E4E4E4"/>
<path id="Vector_45" d="M19.7484 8.25042C19.9348 8.25042 20.0859 8.11943 20.0859 7.95785C20.0859 7.79627 19.9348 7.66528 19.7484 7.66528C19.5621 7.66528 19.411 7.79627 19.411 7.95785C19.411 8.11943 19.5621 8.25042 19.7484 8.25042Z" fill="#FFB6B6"/>
<path id="Vector_46" d="M19.5923 2.7457C20.0265 2.7457 20.3785 2.4405 20.3785 2.06401C20.3785 1.68753 20.0265 1.38232 19.5923 1.38232C19.1581 1.38232 18.8061 1.68753 18.8061 2.06401C18.8061 2.4405 19.1581 2.7457 19.5923 2.7457Z" fill="#FFB7B7"/>
<path id="Vector_47" d="M18.9519 1.96157H18.9519C18.8517 1.96153 18.7515 1.96142 18.6511 1.96123C18.6391 1.96118 18.6273 1.95906 18.6162 1.95499C18.6052 1.95092 18.5953 1.94498 18.587 1.93753C18.5788 1.93024 18.5724 1.92158 18.5681 1.91209C18.5639 1.90259 18.562 1.89245 18.5624 1.88228C18.5698 1.73782 18.6174 1.59706 18.7011 1.47202C18.7849 1.34698 18.9023 1.24136 19.0433 1.16418C19.1916 1.08578 19.3608 1.04206 19.5344 1.0373C19.708 1.03254 19.88 1.06691 20.0337 1.13703C20.1874 1.20716 20.3175 1.31066 20.4113 1.43742C20.5051 1.56417 20.5593 1.70985 20.5688 1.86022C20.5694 1.87038 20.5677 1.88055 20.5638 1.89014C20.5599 1.89973 20.5538 1.90855 20.5459 1.91608C20.5381 1.92362 20.5285 1.92972 20.5179 1.93403C20.5073 1.93835 20.4958 1.94078 20.484 1.9412C20.1361 1.95396 19.7502 1.96016 19.2326 1.96132H19.2323C19.2147 1.96136 19.1975 1.95684 19.1829 1.94832C19.1683 1.93981 19.1569 1.9277 19.1503 1.91355L19.142 1.89587C19.1376 1.88657 19.1299 1.87871 19.1201 1.87343C19.1102 1.86815 19.0987 1.86571 19.0871 1.86647C19.0755 1.86724 19.0646 1.87116 19.0557 1.87767C19.0469 1.88419 19.0407 1.89296 19.038 1.90273C19.0334 1.91951 19.0224 1.93445 19.0068 1.94513C18.9911 1.95581 18.9718 1.96161 18.9519 1.96157Z" fill="#2F2E41"/>
<path id="Vector_48" d="M20.7117 5.39939C20.5004 5.22699 20.4096 4.97683 20.4082 4.7298C20.4065 4.44766 20.5243 4.17969 20.6766 3.93437C20.7687 3.78601 20.8737 3.64403 20.9787 3.50239C21.0141 3.45474 20.9265 3.41068 20.8913 3.45809C20.536 3.93733 20.1446 4.50498 20.3738 5.09395C20.4264 5.23358 20.5179 5.3598 20.6402 5.46145C20.6876 5.50014 20.7593 5.43819 20.7117 5.39939H20.7117Z" fill="#3F3D56"/>
<path id="Vector_49" d="M15.0226 10.6369C14.8485 10.5892 14.6624 10.5852 14.4858 10.6252C14.4854 10.6254 14.4851 10.6253 14.4847 10.6255C14.3478 10.6563 14.2202 10.7124 14.1105 10.7899C14.1042 10.7943 14.0981 10.7988 14.092 10.8034C13.9531 10.9067 13.8506 11.0419 13.7961 11.1934L13.0449 13.2747C12.989 13.4287 12.9852 13.5934 13.0339 13.7493C13.0369 13.7581 13.0398 13.7668 13.0428 13.7756C13.0792 13.8789 13.1379 13.9752 13.2157 14.0596C13.2162 14.06 13.2166 14.0605 13.2169 14.0611C13.3383 14.1918 13.5019 14.2883 13.6868 14.3382L15.1035 14.7226L16.4393 11.0213L15.0226 10.6369Z" fill="#6C63FF"/>
<path id="Vector_50" d="M17.2566 8.00415L15.432 13.0596C15.4262 13.0754 15.4242 13.0921 15.4259 13.1087C15.4276 13.1252 15.433 13.1413 15.4419 13.156C15.4508 13.1708 15.4629 13.1838 15.4776 13.1945C15.4923 13.2051 15.5093 13.2132 15.5276 13.2181C15.5459 13.2231 15.5651 13.2249 15.5842 13.2234C15.6033 13.2219 15.6219 13.2172 15.6388 13.2095C15.6558 13.2018 15.6709 13.1912 15.6831 13.1785C15.6954 13.1657 15.7047 13.151 15.7104 13.1351L17.4431 8.33415C17.4666 8.26889 17.4603 8.19833 17.4256 8.13695C17.3909 8.07558 17.3304 8.02805 17.2566 8.00415Z" fill="#3F3D56"/>
<path id="Vector_51" d="M14.981 15.0001C15.1253 15.0001 15.2422 14.8987 15.2422 14.7736C15.2422 14.6485 15.1253 14.5471 14.981 14.5471C14.8367 14.5471 14.7198 14.6485 14.7198 14.7736C14.7198 14.8987 14.8367 15.0001 14.981 15.0001Z" fill="#3F3D56"/>
<path id="Vector_52" d="M13.2797 14.5382C13.4239 14.5382 13.5409 14.4368 13.5409 14.3117C13.5409 14.1866 13.4239 14.0852 13.2797 14.0852C13.1354 14.0852 13.0184 14.1866 13.0184 14.3117C13.0184 14.4368 13.1354 14.5382 13.2797 14.5382Z" fill="#3F3D56"/>
<path id="Vector_53" d="M14.4858 10.6252C14.2153 11.3608 13.5065 13.284 13.2169 14.0611C13.2166 14.0606 13.2162 14.0601 13.2157 14.0596C13.1379 13.9753 13.0792 13.8789 13.0428 13.7756C13.0398 13.7669 13.0369 13.7581 13.0339 13.7494C13.3445 12.9049 13.8647 11.4806 14.0921 10.8035C14.0981 10.7989 14.1042 10.7944 14.1106 10.7899C14.2202 10.7124 14.3478 10.6564 14.4847 10.6255C14.4851 10.6253 14.4854 10.6254 14.4858 10.6252Z" fill="#3F3D56"/>
</g>
</g>
<defs>
<clipPath id="clip0_150_116">
<rect x="29" y="28" width="30" height="30" rx="15" fill="white"/>
</clipPath>
</defs>
</svg>
