<svg width="14" height="19" viewBox="0 0 14 19" fill="none" xmlns="http://www.w3.org/2000/svg">
<path d="M13.5508 0.796875C13.3008 1.17188 13.0039 1.52344 12.6602 1.85156C12.3164 2.17969 11.9375 2.46875 11.5234 2.71875C11.1172 2.96875 10.6875 3.16797 10.2344 3.31641C9.78125 3.45703 9.32812 3.52734 8.875 3.52734L8.60547 3.55078C8.30859 3.92578 8.08203 4.28906 7.92578 4.64062C7.76953 4.99219 7.69141 5.40625 7.69141 5.88281V13.3711C7.69141 14.4102 7.46875 15.3359 7.02344 16.1484C6.58594 16.9531 5.9375 17.6484 5.07812 18.2344L4.69141 17.7891C4.82422 17.6406 4.92969 17.4727 5.00781 17.2852C5.08594 17.0898 5.14453 16.8906 5.18359 16.6875C5.22266 16.4844 5.24609 16.2812 5.25391 16.0781C5.26953 15.8672 5.27734 15.668 5.27734 15.4805V7.24219C5.27734 6.875 5.35156 6.51953 5.5 6.17578C5.65625 5.82422 5.85156 5.49219 6.08594 5.17969C6.32031 4.86719 6.57812 4.57422 6.85938 4.30078C7.14844 4.02734 7.42578 3.77734 7.69141 3.55078L3.8125 3.52734C3.51562 3.52734 3.25 3.55859 3.01562 3.62109C2.78906 3.67578 2.57812 3.75781 2.38281 3.86719C2.1875 3.97656 2 4.11328 1.82031 4.27734C1.64062 4.44141 1.45703 4.63281 1.26953 4.85156L0.929688 4.48828C1.1875 4.13672 1.47656 3.76562 1.79688 3.375C2.125 2.98438 2.47656 2.62891 2.85156 2.30859C3.23438 1.98828 3.64062 1.72266 4.07031 1.51172C4.50781 1.30078 4.96484 1.19531 5.44141 1.19531H10.5039C10.707 1.19531 10.9336 1.18359 11.1836 1.16016C11.4414 1.13672 11.6992 1.09766 11.957 1.04297C12.2148 0.988281 12.457 0.917969 12.6836 0.832031C12.918 0.738281 13.1133 0.621094 13.2695 0.480469L13.5508 0.796875Z" fill="skyblue"/>
</svg>
