<svg width="344" height="344" viewBox="0 0 344 344" fill="none" xmlns="http://www.w3.org/2000/svg">
<g id="Group">
<g id="Group_2">
<path id="Vector" d="M48.4 291.5C79.7 323.8 123.5 344 172 344C266.8 344 344 266.8 344 172C344 77.2 266.8 0 172 0C77.2 0 0 77.2 0 172C0 217.2 17.6 258.4 46.2 289.1C46.8 290.1 47.6 290.8 48.4 291.5ZM172 324.2C134.6 324.2 100.2 310.6 73.7 288.1C118.3 273.3 134.8 255.3 140.9 243.3C149.4 247 158.9 249 169.4 249.1C169.6 249.1 169.9 249.1 170.1 249.1C170.2 249.1 170.8 249.1 171 249.1C171.2 249.1 171.5 249.1 171.7 249.1C183.1 248.9 193.4 246.6 202.3 242.3C208 254.3 224.2 272.9 270.1 288.1C243.7 310.6 209.4 324.2 172 324.2ZM116.4 140.2C116.4 140 116.4 139.8 116.4 139.6C118.8 87.5 157.2 83.4 169 83.4C169.5 83.4 169.9 83.4 170.2 83.4C170.5 83.4 170.7 83.4 171 83.4C171.3 83.4 171.6 83.4 172.2 83.4C183.9 83.4 222.4 87.5 224.8 139.6C224.8 139.8 224.8 140 224.8 140.2C224.9 140.7 229.8 188.9 207.3 214.2C198.4 224.2 186.5 229.2 171 229.3C170.9 229.3 170.7 229.3 170.7 229.3C170.6 229.3 170.5 229.3 170.4 229.3C154.8 229.1 143 224.2 134.1 214.2C111.5 189.1 116.3 140.7 116.4 140.2ZM172 19.8C255.9 19.8 324.2 88.1 324.2 172C324.2 210.4 309.8 245.6 286.3 272.4C221.7 253.6 219.2 230.8 219.2 230.5C219.2 230.9 219.2 231 219.2 231H218.5C219.7 229.8 220.9 228.6 222.1 227.3C249.6 196.4 245 143.5 244.5 138.3C241.8 83.1 203.9 63.5 172.2 63.5C171.6 63.5 171 63.5 170.6 63.5C170.2 63.5 169.7 63.5 169 63.5C137.3 63.5 99.3 83.1 96.7 138.3C96.2 143.4 91.7 196.3 119.1 227.3C120.7 229.1 122.4 230.8 124.1 232.4C122 238.2 111.4 256.6 57.7 272.3C34.1 245.5 19.8 210.4 19.8 172C19.8 88.1 88.1 19.8 172 19.8Z" fill="#2C2F33"/>
</g>
</g>
</svg>
