<svg width="508" height="486" viewBox="0 0 508 486" fill="none" xmlns="http://www.w3.org/2000/svg">
<g id="svg">
<ellipse id="Ellipse 1" cx="253.87" cy="242.692" rx="253.106" ry="241.893" transform="rotate(-0.18117 253.87 242.692)" fill="#332F2F"/>
<g id="anim" clip-path="url(#clip0_30_2)">
<g id="sun">
<path id="Vector" d="M178.594 139.389C191.001 139.389 201.059 128.781 201.059 115.694C201.059 102.608 191.001 92 178.594 92C166.187 92 156.129 102.608 156.129 115.694C156.129 128.781 166.187 139.389 178.594 139.389Z" fill="#EC946E"/>
<path id="Vector_2" d="M219.135 97.515C208.248 95.9628 195.818 102.17 192.996 113.369C192.284 111.377 190.992 109.676 189.304 108.511C187.616 107.345 185.62 106.776 183.606 106.885C181.591 106.994 179.661 107.776 178.095 109.117C176.529 110.459 175.408 112.291 174.894 114.348L176.141 115.29C199.473 120.612 223.625 120.496 246.91 114.952C239.337 106.558 230.023 99.0671 219.135 97.515Z" fill="#F0F0F0"/>
<path id="Vector_3" d="M172.443 129.108C161.555 127.555 149.125 133.762 146.303 144.961C145.592 142.97 144.299 141.269 142.611 140.104C140.923 138.938 138.928 138.369 136.913 138.478C134.898 138.587 132.969 139.369 131.403 140.71C129.837 142.052 128.716 143.884 128.202 145.941L129.448 146.883C152.78 152.204 176.932 152.089 200.218 146.545C192.644 138.15 183.33 130.66 172.443 129.108Z" fill="#F0F0F0"/>
</g>
<path id="Vector_4" d="M255.558 192.473C251.873 186.044 247.506 179.181 240.667 177.082C232.747 174.651 224.612 179.48 217.711 184.245C197.074 198.496 177.199 213.94 158.179 230.507L158.2 230.757C173.008 229.679 187.816 228.602 202.624 227.525C213.322 226.747 224.388 225.862 233.843 220.524C237.431 218.498 240.928 215.792 244.994 215.604C250.045 215.37 254.449 219.09 257.91 222.977C278.383 245.971 284.307 281.135 307.276 301.336C292.793 263.663 275.499 227.261 255.558 192.473Z" fill="#F2F2F2" fill-opacity="0.08"/>
<path id="Vector_5" d="M381.403 387.503C379.139 384.488 378.214 383.782 375.981 380.738C357.797 355.934 340.706 330.291 324.707 303.81C313.84 285.826 303.512 267.496 293.723 248.821C289.062 239.942 284.529 230.994 280.124 221.976C276.706 214.984 273.364 207.95 270.099 200.874C269.165 198.853 268.257 196.823 267.355 194.788C265.227 190.003 263.139 185.194 260.897 180.474C258.342 175.094 255.232 169.453 250.541 165.839C248.406 164.126 245.853 163.09 243.18 162.851C239.361 162.591 235.837 164.254 232.524 166.071C208.288 179.4 185.598 196.112 165.076 215.128C144.5 234.187 126.109 255.718 110.278 279.284C109.793 280.014 108.648 279.317 109.137 278.583C111.062 275.711 113.025 272.871 115.026 270.062C139.911 235.155 170.424 205.137 205.169 181.38C211.015 177.384 216.971 173.576 223.036 169.955C226.093 168.129 229.163 166.327 232.286 164.635C235.348 162.977 238.599 161.485 242.096 161.43C253.998 161.235 260.161 175.451 264.394 185.017C265.725 188.028 267.071 191.029 268.434 194.021C273.583 205.381 278.931 216.636 284.476 227.788C287.899 234.674 291.397 241.519 294.969 248.323C306.087 269.514 317.904 290.275 330.42 310.607C347.001 337.54 363.449 361.332 382.337 386.518C382.857 387.215 381.928 388.209 381.403 387.503Z" fill="#E4E4E4"/>
<path id="Vector_6" d="M163.899 208.108C163.208 207.295 162.521 206.482 161.825 205.669C156.336 199.267 150.447 192.939 142.91 189.268C139.316 187.463 135.393 186.504 131.413 186.458C127.299 186.472 123.277 187.61 119.476 189.203C117.678 189.961 115.921 190.82 114.19 191.735C112.212 192.785 110.269 193.905 108.335 195.034C104.706 197.153 101.123 199.364 97.5873 201.669C90.5525 206.254 83.738 211.19 77.1438 216.475C73.7255 219.216 70.3776 222.047 67.1004 224.968C64.0522 227.681 61.0656 230.467 58.1408 233.326C57.5153 233.935 56.5814 232.95 57.2069 232.341C57.9777 231.584 58.7574 230.831 59.5371 230.088C61.7396 227.988 63.9773 225.928 66.2503 223.909C70.3953 220.22 74.6475 216.674 79.0071 213.27C85.7864 207.973 92.7991 203.036 100.045 198.458C103.666 196.172 107.337 193.983 111.057 191.889C112.181 191.257 113.317 190.639 114.467 190.054C117.076 188.666 119.786 187.502 122.572 186.574C126.519 185.227 130.694 184.795 134.814 185.305C138.791 185.916 142.623 187.314 146.108 189.426C153.508 193.789 159.248 200.535 164.833 207.118C165.397 207.787 164.468 208.777 163.899 208.108Z" fill="#E4E4E4"/>
<path id="Vector_7" d="M140.576 197.324C131.565 192.439 120.024 193.396 111.743 199.499C127.539 202.373 143.161 206.219 158.531 211.016C152.148 207.072 147.156 200.891 140.576 197.324Z" fill="#F2F2F2" fill-opacity="0.08"/>
<path id="Vector_8" d="M111.655 199.482L109.92 200.97C110.507 200.449 111.117 199.961 111.743 199.499C111.714 199.494 111.684 199.488 111.655 199.482Z" fill="#F2F2F2"/>
<path id="Vector_9" opacity="0.15" d="M209.662 353.185C209.679 353.539 209.714 353.892 209.767 354.242C208.858 352.771 208.336 351.072 208.252 349.318C208.24 349.05 208.213 348.782 208.177 348.516C209.06 349.904 209.572 351.516 209.662 353.185Z" fill="black"/>
<path id="Vector_10" opacity="0.15" d="M206.728 341.235C205.988 341.573 205.208 341.805 204.41 341.926C204.102 341.584 203.818 341.218 203.56 340.833C204.579 341.193 205.657 341.329 206.728 341.235Z" fill="black"/>
<path id="Vector_11" opacity="0.15" d="M203.311 338.006C203.229 338.856 203.251 339.713 203.378 340.557C202.936 339.848 202.583 339.081 202.329 338.275L202.288 338.145L202.417 338.134C202.717 338.107 203.015 338.065 203.311 338.006Z" fill="black"/>
<g id="trees">
<path id="Vector_12" d="M364.095 274.52C362.349 272.279 360.462 269.932 357.851 269.022L355.413 269.123C373.969 303.706 399.031 333.925 429.059 357.924C407.404 330.123 385.75 302.321 364.095 274.52Z" fill="#F2F2F2"/>
<path id="Vector_13" d="M376.586 333.652L401.053 314.06L412.979 326.638L373.12 355.406L376.586 333.652Z" fill="#270000"/>
<path id="Vector_14" d="M353.767 387.598H270.072L273.007 377.567C291.2 370.62 280.981 355.689 298.287 346.563C340.616 324.24 357.004 257.627 350.806 231.294L378.545 230.057C378.545 230.057 416.853 344.799 353.767 387.598Z" fill="#270000"/>
<path id="Vector_15" d="M425.218 340.443C422.718 342.761 419.52 344.07 416.192 344.136C412.863 344.201 409.62 343.02 407.04 340.801L406.986 340.754L406.984 340.681C406.953 339.452 406.772 338.232 406.443 337.052C406.427 337.902 406.309 338.745 406.094 339.564L406.024 339.839L405.836 339.634C405.673 339.458 405.516 339.278 405.369 339.101C404.5 338.062 403.773 336.901 403.208 335.651C400.501 329.78 396.58 324.625 391.733 320.565C390.868 319.823 390.063 319.006 389.326 318.122C386.214 314.388 384.464 309.607 384.389 304.635C384.314 299.664 385.92 294.827 388.918 290.99C391.916 287.153 396.112 284.568 400.753 283.696C405.394 282.824 410.178 283.724 414.247 286.233L414.371 286.309L414.307 286.445C413.836 287.476 413.213 288.423 412.463 289.251C413.495 288.663 414.45 287.935 415.303 287.086L415.393 286.997L415.496 287.071C416.832 288.046 418.051 289.19 419.125 290.478L419.24 290.618C420.06 291.606 421.068 292.402 422.198 292.952C423.328 293.502 424.556 293.795 425.801 293.811C427.832 293.847 429.831 294.347 431.662 295.276C433.492 296.205 435.11 297.541 436.404 299.192C437.698 300.843 438.638 302.771 439.158 304.842C439.679 306.913 439.767 309.078 439.419 311.189L439.403 311.287L439.312 311.316C437.734 311.887 436.06 312.107 434.397 311.962C435.786 312.6 437.265 312.991 438.775 313.119L438.97 313.135L438.908 313.331C438.122 315.822 436.722 318.048 434.852 319.781L434.799 319.831C434.78 319.848 434.761 319.865 434.742 319.883C433.349 321.148 432.209 322.694 431.39 324.43C430.571 326.167 430.088 328.058 429.971 329.993C429.879 331.981 429.41 333.929 428.594 335.724C427.778 337.518 426.63 339.122 425.218 340.443Z" fill="#426544"/>
<path id="Vector_16" opacity="0.15" d="M436.059 298.692C434.764 297.143 433.177 295.895 431.4 295.028C429.623 294.162 427.694 293.695 425.736 293.658C424.491 293.642 423.263 293.349 422.133 292.799C421.002 292.249 419.995 291.453 419.175 290.465L419.06 290.325C417.986 289.037 416.767 287.893 415.43 286.918L415.328 286.844L415.238 286.933C414.385 287.782 413.43 288.51 412.397 289.098C413.148 288.27 413.771 287.323 414.242 286.292L414.306 286.156L414.182 286.08C411.484 284.414 408.451 283.445 405.33 283.251C402.21 283.058 399.09 283.645 396.225 284.965C393.36 286.285 390.832 288.301 388.847 290.848C386.861 293.395 385.475 296.401 384.801 299.621C386.099 297.215 387.838 295.105 389.915 293.413C391.992 291.721 394.367 290.481 396.902 289.764C399.437 289.047 402.082 288.868 404.683 289.237C407.284 289.606 409.79 290.516 412.055 291.914L412.179 291.991L412.114 292.126C411.643 293.158 411.021 294.105 410.27 294.932C411.302 294.344 412.257 293.616 413.111 292.767L413.201 292.678L413.303 292.752C414.64 293.727 415.859 294.872 416.932 296.159L417.048 296.299C417.867 297.288 418.875 298.083 420.005 298.633C421.136 299.183 422.363 299.476 423.608 299.492C426.863 299.55 429.998 300.797 432.479 303.021C434.96 305.244 436.632 308.306 437.212 311.685C437.9 311.555 438.58 311.381 439.247 311.163L439.338 311.134L439.354 311.036C439.719 308.849 439.612 306.604 439.042 304.467C438.472 302.331 437.452 300.357 436.059 298.692Z" fill="black"/>
<path id="Vector_17" d="M465.671 237.611C465.67 248.916 461.867 259.855 454.94 268.482C448.012 277.11 438.408 282.866 427.835 284.729L427.612 284.767L427.439 284.615C424.556 282.079 421.374 279.949 417.972 278.277C419.884 280.125 421.568 282.219 422.986 284.509L423.468 285.274L422.599 285.318C421.849 285.356 421.103 285.376 420.384 285.376C416.155 285.379 411.947 284.764 407.878 283.547C389.399 278.001 369.554 277.053 348.896 280.728C345.354 281.356 341.769 281.672 338.177 281.671C302.954 281.671 274.298 251.441 274.298 214.284C274.279 200.117 278.5 186.304 286.361 174.816C294.221 163.328 305.319 154.75 318.073 150.305L318.512 150.152L318.686 150.604C320.049 154 320.896 157.601 321.196 161.275C322.043 157.392 322.405 153.41 322.275 149.428L322.261 149.007L322.648 148.905C327.728 147.57 332.942 146.895 338.177 146.896L338.743 146.898C342.752 146.911 346.718 146.032 350.383 144.32C354.048 142.607 357.33 140.099 360.014 136.96C364.416 131.857 369.813 127.821 375.835 125.129C381.857 122.436 388.361 121.152 394.898 121.364C401.436 121.575 407.852 123.278 413.706 126.355C419.56 129.432 424.712 133.811 428.809 139.188L428.999 139.437L428.873 139.729C426.228 145.88 423.345 150.361 419.904 153.638C424.32 151.453 428.361 148.512 431.865 144.934L432.317 144.471L432.635 145.045C436.672 152.349 438.798 160.652 438.795 169.106L438.794 169.347C438.794 169.432 438.794 169.517 438.794 169.602C438.794 182.535 443.535 194.792 451.824 203.269C456.183 207.732 459.654 213.069 462.032 218.966C464.409 224.864 465.647 231.202 465.671 237.611Z" fill="#477A49"/>
<path id="Vector_18" d="M243.591 351.844L227.375 338.859L219.471 347.196L245.888 366.262L243.591 351.844Z" fill="#270000"/>
<path id="Vector_19" d="M258.714 387.598H314.185L312.239 380.95C300.181 376.346 306.954 366.45 295.484 360.401C267.43 345.607 256.569 301.458 260.677 284.006L242.292 283.186C242.292 283.186 216.903 359.233 258.714 387.598Z" fill="#270000"/>
<path id="Vector_20" d="M208.209 349.42C208.131 348.137 207.811 346.883 207.269 345.733C206.726 344.582 205.97 343.557 205.047 342.719C205.034 342.707 205.022 342.696 205.009 342.684L204.974 342.651C203.735 341.503 202.807 340.027 202.286 338.376L202.244 338.247L202.374 338.236C203.374 338.151 204.355 337.892 205.275 337.469C204.173 337.566 203.064 337.42 202.018 337.041L201.958 337.022L201.947 336.957C201.716 335.558 201.775 334.123 202.12 332.75C202.465 331.378 203.087 330.1 203.945 329.006C204.803 327.911 205.875 327.026 207.088 326.41C208.301 325.794 209.627 325.463 210.973 325.439C211.798 325.429 212.611 325.235 213.361 324.87C214.11 324.505 214.778 323.978 215.321 323.323L215.397 323.23C216.109 322.377 216.917 321.619 217.803 320.972L217.87 320.923L217.93 320.982C218.496 321.545 219.129 322.027 219.813 322.417C219.315 321.869 218.903 321.241 218.59 320.557L218.548 320.467L218.63 320.417C221.327 318.754 224.498 318.158 227.574 318.735C230.65 319.313 233.43 321.027 235.417 323.57C237.405 326.113 238.469 329.318 238.419 332.613C238.37 335.908 237.21 339.077 235.147 341.552C234.659 342.137 234.125 342.679 233.552 343.171C230.339 345.862 227.74 349.278 225.947 353.169C225.572 353.998 225.09 354.767 224.515 355.456C224.417 355.574 224.313 355.692 224.205 355.809L224.08 355.945L224.034 355.763C223.891 355.22 223.813 354.661 223.802 354.098C223.585 354.88 223.464 355.688 223.444 356.503L223.443 356.552L223.407 356.583C222.069 357.734 220.455 358.471 218.743 358.711C217.032 358.951 215.291 358.685 213.714 357.942C212.138 357.199 210.789 356.008 209.817 354.504C208.844 352.999 208.288 351.239 208.209 349.42Z" fill="#477A49"/>
<path id="Vector_21" opacity="0.15" d="M204.174 328.675C205.032 327.648 206.084 326.821 207.262 326.246C208.44 325.672 209.718 325.362 211.016 325.338C211.841 325.327 212.655 325.133 213.404 324.769C214.153 324.404 214.821 323.877 215.364 323.222L215.441 323.129C216.152 322.276 216.96 321.517 217.846 320.871L217.914 320.822L217.973 320.881C218.539 321.444 219.172 321.926 219.856 322.316C219.358 321.767 218.946 321.14 218.634 320.456L218.591 320.366L218.673 320.315C220.461 319.211 222.471 318.569 224.54 318.441C226.608 318.312 228.676 318.702 230.575 319.577C232.473 320.452 234.149 321.788 235.465 323.476C236.78 325.164 237.699 327.156 238.146 329.29C237.285 327.695 236.133 326.297 234.757 325.176C233.38 324.054 231.806 323.232 230.126 322.757C228.446 322.282 226.693 322.163 224.969 322.408C223.245 322.653 221.584 323.256 220.083 324.182L220.001 324.233L220.044 324.322C220.356 325.006 220.768 325.634 221.266 326.182C220.582 325.793 219.949 325.31 219.383 324.748L219.324 324.688L219.256 324.737C218.37 325.384 217.562 326.142 216.851 326.996L216.774 327.088C216.231 327.744 215.563 328.271 214.814 328.635C214.065 329 213.251 329.194 212.426 329.205C210.269 329.243 208.191 330.07 206.547 331.543C204.903 333.017 203.794 335.046 203.41 337.286C202.954 337.199 202.503 337.084 202.061 336.939L202.001 336.92L201.99 336.855C201.748 335.406 201.819 333.918 202.197 332.502C202.575 331.086 203.251 329.778 204.174 328.675Z" fill="black"/>
<path id="Vector_22" d="M193.726 265.431C199.219 259.813 202.362 251.689 202.362 243.118C202.362 243.062 202.362 243.005 202.361 242.949L202.361 242.789C202.359 237.186 203.768 231.683 206.444 226.843L206.654 226.462L206.954 226.769C209.276 229.14 211.955 231.09 214.881 232.538C212.6 230.366 210.69 227.396 208.936 223.319L208.853 223.126L208.979 222.961C211.694 219.397 215.109 216.495 218.989 214.456C222.869 212.416 227.121 211.288 231.454 211.147C235.787 211.007 240.097 211.858 244.088 213.643C248.079 215.427 251.657 218.102 254.574 221.484C256.353 223.565 258.528 225.227 260.957 226.362C263.386 227.497 266.015 228.079 268.671 228.071L269.047 228.069C272.516 228.069 275.972 228.516 279.339 229.401L279.595 229.469L279.586 229.747C279.5 232.386 279.74 235.026 280.301 237.599C280.5 235.164 281.062 232.777 281.965 230.527L282.08 230.227L282.371 230.329C291.919 233.671 300.027 240.488 305.244 249.56C310.461 258.633 312.446 269.367 310.843 279.842C309.24 290.317 304.154 299.848 296.495 306.729C288.837 313.609 279.107 317.39 269.047 317.394C266.666 317.394 264.29 317.185 261.942 316.768C248.251 314.333 235.099 314.961 222.851 318.637C220.155 319.443 217.366 319.851 214.563 319.849C214.086 319.849 213.592 319.836 213.095 319.81L212.519 319.781L212.839 319.274C213.778 317.757 214.894 316.369 216.161 315.144C213.907 316.252 211.798 317.664 209.887 319.344L209.773 319.445L209.624 319.42C204.141 318.458 199.018 315.907 194.829 312.053C190.639 308.199 187.547 303.193 185.899 297.594C184.25 291.994 184.108 286.021 185.49 280.342C186.873 274.663 189.724 269.501 193.726 265.431Z" fill="#426544"/>
</g>
<g id="Group" opacity="0.15">
<path id="Vector_23" opacity="0.15" d="M221.243 213.38C222.278 215.191 223.551 216.838 225.025 218.273C222.915 217.228 220.931 215.92 219.116 214.378C219.812 214.016 220.521 213.683 221.243 213.38Z" fill="black"/>
<path id="Vector_24" opacity="0.15" d="M203.869 251.166C202.237 252.837 200.789 254.697 199.554 256.712C201.413 252.449 202.371 247.81 202.362 243.118C202.362 243.062 202.362 243.005 202.361 242.949L202.361 242.789C202.359 237.186 203.768 231.683 206.444 226.843L206.654 226.462L206.954 226.769C208.609 228.456 210.446 229.931 212.428 231.165C211.917 238.872 208.866 246.056 203.869 251.166Z" fill="black"/>
<path id="Vector_25" opacity="0.15" d="M212.504 228.524L212.505 228.684C212.505 228.74 212.505 228.797 212.505 228.853C212.505 229.164 212.5 229.474 212.492 229.784C211.078 227.778 209.885 225.609 208.936 223.319L208.853 223.126L208.979 222.961C210.563 220.883 212.387 219.022 214.409 217.422C213.15 220.973 212.505 224.733 212.504 228.524Z" fill="black"/>
</g>
<path id="Vector_26" d="M78.3482 353.387C73.4976 353.387 68.8042 351.572 65.1027 348.266C61.4011 344.959 58.9312 340.375 58.1322 335.329L58.1157 335.222L58.181 335.14C59.2688 333.764 60.1828 332.245 60.9002 330.622C60.1073 331.534 59.2089 332.338 58.2263 333.014L57.8983 333.244L57.8794 332.83C57.8628 332.472 57.8546 332.116 57.8546 331.773C57.8529 329.754 58.117 327.745 58.6392 325.804C61.0185 316.984 61.4253 307.512 59.8486 297.652C59.5792 295.962 59.4438 294.251 59.4439 292.536C59.4463 285.292 61.8937 278.284 66.3479 272.769C70.8021 267.254 76.9722 263.592 83.7533 262.437C90.5344 261.283 97.4837 262.712 103.357 266.469C109.23 270.226 113.643 276.065 115.807 282.941L115.872 283.151L115.679 283.233C114.221 283.884 112.676 284.288 111.1 284.431C112.766 284.836 114.475 285.009 116.183 284.946L116.364 284.94L116.407 285.125C116.98 287.549 117.27 290.038 117.269 292.536L117.268 292.807C117.263 294.72 117.64 296.613 118.375 298.362C119.109 300.111 120.185 301.678 121.533 302.959C123.722 305.06 125.454 307.636 126.609 310.51C127.764 313.384 128.315 316.488 128.224 319.608C128.133 322.729 127.403 325.791 126.082 328.585C124.762 331.379 122.884 333.838 120.576 335.794L120.47 335.885L120.344 335.824C117.705 334.562 115.783 333.186 114.377 331.544C115.314 333.651 116.576 335.58 118.111 337.252L118.31 337.468L118.063 337.62C114.93 339.547 111.368 340.561 107.74 340.56L107.637 340.56C107.6 340.559 107.564 340.559 107.527 340.559C104.848 340.53 102.191 341.064 99.7102 342.132C97.2298 343.2 94.9766 344.78 93.0827 346.778C91.1676 348.859 88.8777 350.516 86.3475 351.65C83.8173 352.785 81.0977 353.376 78.3482 353.387Z" fill="#426544"/>
<path id="Vector_27" d="M71.0957 387.444C71.0067 387.444 70.9207 387.41 70.8536 387.349C70.7864 387.287 70.7425 387.202 70.73 387.109C70.7143 386.993 69.1751 375.284 70.5574 359.724C71.8341 345.353 75.9338 324.654 88.215 307.655C88.2444 307.614 88.2812 307.58 88.3232 307.554C88.3651 307.528 88.4116 307.511 88.4597 307.504C88.5079 307.498 88.5569 307.501 88.6039 307.514C88.6508 307.527 88.6949 307.55 88.7336 307.581C88.7723 307.612 88.8047 307.651 88.8292 307.695C88.8536 307.739 88.8695 307.788 88.876 307.839C88.8825 307.89 88.8794 307.941 88.8669 307.991C88.8545 308.041 88.8329 308.087 88.8034 308.128C76.6283 324.981 72.5616 345.527 71.294 359.797C69.9196 375.267 71.4468 386.883 71.4623 386.999C71.4698 387.054 71.4658 387.111 71.4508 387.164C71.4358 387.218 71.41 387.268 71.3752 387.31C71.3405 387.352 71.2975 387.386 71.2493 387.409C71.2011 387.432 71.1487 387.444 71.0957 387.444Z" fill="#270000"/>
<path id="Vector_28" d="M77.235 330.133C77.1569 330.133 77.0808 330.107 77.0175 330.059C76.9543 330.01 76.9072 329.942 76.883 329.864C76.8588 329.785 76.8588 329.701 76.8829 329.622C76.9071 329.544 76.9541 329.476 77.0173 329.427C80.5167 326.929 84.297 324.899 88.2713 323.385C94.4804 320.987 103.922 318.814 113.642 322.077C113.689 322.092 113.732 322.117 113.769 322.15C113.806 322.183 113.837 322.223 113.86 322.269C113.882 322.315 113.896 322.364 113.9 322.415C113.904 322.467 113.899 322.518 113.884 322.567C113.869 322.616 113.845 322.661 113.814 322.701C113.782 322.74 113.744 322.772 113.701 322.796C113.658 322.819 113.61 322.833 113.562 322.837C113.513 322.842 113.464 322.836 113.418 322.82C103.897 319.624 94.6264 321.762 88.5257 324.118C84.6153 325.606 80.8955 327.602 77.4521 330.058C77.3891 330.107 77.3131 330.133 77.235 330.133Z" fill="#270000"/>
<path id="Vector_29" d="M446.985 388H58.2595C58.2063 388 58.1534 387.989 58.1042 387.968C58.0549 387.947 58.0101 387.915 57.9723 387.875C57.9346 387.836 57.9046 387.789 57.8842 387.737C57.8638 387.685 57.8532 387.629 57.8532 387.573C57.8532 387.517 57.8638 387.461 57.8842 387.409C57.9046 387.357 57.9346 387.31 57.9723 387.27C58.0101 387.231 58.0549 387.199 58.1042 387.178C58.1534 387.156 58.2063 387.146 58.2595 387.146H446.985C447.092 387.146 447.195 387.191 447.271 387.271C447.347 387.351 447.39 387.46 447.39 387.573C447.39 387.686 447.347 387.795 447.271 387.875C447.195 387.955 447.092 388 446.985 388Z" fill="#BEBEBE"/>
<g id="girl">
<path id="Vector_30" d="M116.88 312.974C117.307 312.852 117.704 312.632 118.042 312.33C118.379 312.028 118.65 311.652 118.835 311.227C119.02 310.803 119.115 310.341 119.112 309.875C119.11 309.408 119.01 308.947 118.82 308.525L125.346 286.085L120.546 285.081L114.578 307.077C113.927 307.46 113.432 308.082 113.186 308.824C112.941 309.566 112.962 310.378 113.246 311.105C113.529 311.831 114.056 312.423 114.726 312.768C115.396 313.113 116.162 313.186 116.88 312.974Z" fill="#FFB6B6"/>
<path id="Vector_31" d="M125.727 279.529C125.034 279.239 124.271 279.19 123.551 279.39V279.394C123.307 279.456 123.072 279.548 122.85 279.668C122.606 279.794 122.379 279.952 122.172 280.138C121.724 280.529 121.379 281.034 121.167 281.606L117.987 287.45C117.896 287.616 117.84 287.801 117.823 287.992C117.806 288.183 117.829 288.375 117.89 288.556C117.95 288.738 118.046 288.904 118.172 289.042C118.299 289.181 118.452 289.289 118.621 289.36L119.309 289.643L122.573 290.995L123.775 291.497L124.586 291.831C124.755 291.902 124.937 291.933 125.119 291.923C125.3 291.912 125.478 291.86 125.639 291.771C125.8 291.681 125.941 291.556 126.052 291.404C126.163 291.251 126.241 291.076 126.282 290.888L127.718 284.342C128.057 283.425 128.038 282.404 127.665 281.502C127.292 280.599 126.595 279.89 125.727 279.529Z" fill="#270000"/>
<path id="Vector_32" d="M135.185 380.505H138.508L140.089 366.987H135.185V380.505Z" fill="#FFB6B6"/>
<path id="Vector_33" d="M133.431 386.577H135.814L136.239 384.204L137.329 386.577H143.649C143.952 386.577 144.247 386.475 144.491 386.285C144.735 386.096 144.915 385.829 145.005 385.524C145.095 385.219 145.091 384.892 144.992 384.59C144.893 384.288 144.705 384.027 144.456 383.845L139.409 380.169V377.77L134.1 378.104L133.431 386.577Z" fill="#050505"/>
<path id="Vector_34" d="M102.869 373.551L105.727 375.339L113.625 364.562L109.407 361.924L102.869 373.551Z" fill="#FFB6B6"/>
<path id="Vector_35" d="M98.4237 377.83L100.473 379.112L101.987 377.3L101.776 379.927L107.212 383.328C107.473 383.491 107.776 383.562 108.077 383.53C108.379 383.498 108.663 383.366 108.888 383.152C109.113 382.938 109.267 382.654 109.328 382.341C109.39 382.028 109.354 381.703 109.228 381.412L106.665 375.535L107.825 373.472L103.097 370.903L98.4237 377.83Z" fill="#050505"/>
<path id="Vector_36" d="M136.668 294.072L138.283 304.929L122.942 305.142L124.961 294.711L136.668 294.072Z" fill="#FFB6B6"/>
<path id="Vector_37" d="M138.342 304.792L142.723 315.999L143.042 345.97L139.303 374.587H135.166L133.47 346.437L129.301 327.176L125.188 347.321L112.401 367.039H106.118L117.67 345.31L119.007 321.641C119.007 321.641 118.173 311.599 122.438 305.674L123.476 302.511L138.342 304.792Z" fill="#050505"/>
<path id="Vector_38" d="M138.554 284.073C138.545 283.975 138.532 283.873 138.514 283.775C138.183 281.433 136.985 279.324 135.182 277.911C133.38 276.498 131.121 275.895 128.898 276.235C126.811 276.565 124.91 277.686 123.551 279.39V279.394C123.48 279.482 123.414 279.575 123.348 279.668C123.229 279.826 123.119 279.994 123.013 280.161C122.058 281.682 121.567 283.475 121.604 285.299V285.304C121.617 286.007 121.711 286.706 121.881 287.385C122.174 288.574 122.405 289.779 122.573 290.995C122.687 291.766 122.775 292.524 122.841 293.262C122.881 293.634 122.912 294.001 122.938 294.359V294.364C123.07 296.134 123.114 297.723 123.154 298.954C123.172 299.623 123.189 300.18 123.22 300.608C123.221 300.636 123.224 300.664 123.229 300.691C123.263 300.979 123.38 301.248 123.564 301.463C123.586 301.493 123.611 301.521 123.639 301.546C123.834 301.732 124.07 301.863 124.326 301.927C124.414 301.946 124.504 301.955 124.594 301.955H124.621L127.189 300.691L129.215 299.697L136.091 296.315C136.373 296.309 136.647 296.212 136.875 296.038C137.103 295.863 137.275 295.62 137.369 295.339V295.335C137.378 295.297 137.391 295.26 137.4 295.218C137.77 293.681 138.426 292.031 138.66 289.378C138.69 288.997 138.717 288.603 138.73 288.18V288.175C138.769 286.805 138.71 285.434 138.554 284.073Z" fill="#270000"/>
<path id="Vector_39" d="M129.004 274.766C132.586 274.766 135.49 271.703 135.49 267.925C135.49 264.147 132.586 261.084 129.004 261.084C125.422 261.084 122.518 264.147 122.518 267.925C122.518 271.703 125.422 274.766 129.004 274.766Z" fill="#FFB6B6"/>
<path id="Vector_40" d="M122.079 278.558C120.713 278.56 119.403 279.133 118.437 280.152C117.471 281.171 116.927 282.553 116.925 283.994V295.26C116.925 296.527 117.344 297.754 118.111 298.728C118.878 299.703 119.943 300.365 121.123 300.598H121.128C121.442 300.66 121.76 300.691 122.079 300.691H129.215V278.558H122.079Z" fill="#030024"/>
<path id="Vector_41" d="M122.172 279.668V287.887C122.172 288.138 122.266 288.379 122.435 288.557C122.603 288.735 122.832 288.835 123.07 288.835C123.309 288.835 123.537 288.735 123.706 288.557C123.874 288.379 123.969 288.138 123.969 287.887V279.668H122.172Z" fill="#A18181"/>
<path id="Vector_42" d="M126.132 293.262H120.908C120.759 293.262 120.611 293.294 120.473 293.354C120.336 293.414 120.211 293.503 120.106 293.614C120.001 293.725 119.917 293.857 119.861 294.003C119.804 294.148 119.775 294.304 119.776 294.461V297.755C119.775 298.072 119.894 298.377 120.107 298.601C120.319 298.826 120.607 298.953 120.908 298.954H126.132C126.433 298.953 126.722 298.826 126.935 298.602C127.148 298.377 127.268 298.073 127.268 297.755V294.461C127.268 294.304 127.239 294.148 127.182 294.002C127.125 293.857 127.041 293.725 126.935 293.613C126.83 293.502 126.705 293.414 126.567 293.354C126.429 293.293 126.281 293.262 126.132 293.262Z" fill="#A28181"/>
<path id="Vector_43" d="M135.783 292.22C137.207 290.313 137.959 287.943 137.91 285.515C137.91 280.634 135.153 276.663 131.765 276.663C129.946 276.663 128.232 277.809 127.063 279.809L127.573 280.141C128.631 278.332 130.158 277.295 131.765 277.295C134.823 277.295 137.311 280.983 137.311 285.515C137.36 287.793 136.659 290.019 135.325 291.812L135.783 292.22Z" fill="#477A49"/>
<path id="Vector_44" d="M149.917 308.75C150.113 308.331 150.22 307.872 150.229 307.405C150.239 306.938 150.152 306.475 149.973 306.048C149.795 305.62 149.53 305.24 149.197 304.932C148.864 304.624 148.471 304.398 148.046 304.267L136.447 284.236L132.552 287.36L144.205 306.657C144.045 307.425 144.158 308.228 144.522 308.914C144.886 309.6 145.476 310.121 146.18 310.379C146.884 310.637 147.653 310.614 148.342 310.313C149.031 310.013 149.591 309.457 149.917 308.75Z" fill="#FFB6B6"/>
<path id="Vector_45" d="M140.474 286.679L138.514 283.775L137.466 282.224L136.783 281.211C136.569 280.765 136.27 280.37 135.906 280.049C135.285 279.501 134.504 279.195 133.694 279.183C132.884 279.172 132.094 279.455 131.459 279.985C130.824 280.515 130.381 281.26 130.206 282.095C130.031 282.929 130.134 283.801 130.497 284.565L132.532 290.953C132.591 291.135 132.686 291.302 132.811 291.441C132.936 291.581 133.088 291.691 133.257 291.763C133.426 291.835 133.607 291.868 133.789 291.86C133.971 291.852 134.15 291.803 134.312 291.715L134.968 291.362L136.003 290.805L136.933 290.308H136.937L138.66 289.378L139.245 289.067L140.021 288.649C140.183 288.561 140.325 288.437 140.437 288.286C140.55 288.135 140.63 287.96 140.673 287.773C140.716 287.586 140.721 287.392 140.686 287.203C140.652 287.015 140.58 286.836 140.474 286.679Z" fill="#270000"/>
<path id="Vector_46" d="M125.048 262.343V262.348C125.049 262.646 125.013 262.942 124.941 263.23C124.93 263.28 124.916 263.333 124.9 263.384V263.386C124.747 263.9 124.484 264.37 124.13 264.759C123.776 265.147 123.342 265.444 122.861 265.626C122.79 265.655 122.717 265.679 122.644 265.7C122.491 265.747 122.334 265.781 122.175 265.801C122.032 265.823 121.889 265.833 121.745 265.833C121.632 265.833 121.519 265.827 121.407 265.816C121.145 265.788 120.887 265.726 120.639 265.631C120.601 265.619 120.563 265.604 120.526 265.587C120.507 265.58 120.489 265.572 120.471 265.563C120.058 265.381 119.684 265.112 119.372 264.772C119.06 264.433 118.817 264.03 118.658 263.588C118.498 263.147 118.425 262.675 118.444 262.203C118.462 261.731 118.571 261.268 118.764 260.841L118.767 260.839C118.929 260.481 119.148 260.156 119.416 259.878C120.034 259.227 120.872 258.863 121.745 258.864C121.788 258.863 121.831 258.864 121.874 258.868C122.377 258.89 122.869 259.033 123.311 259.285C123.754 259.536 124.137 259.891 124.431 260.322C124.685 260.694 124.866 261.116 124.964 261.562C125.02 261.818 125.048 262.08 125.048 262.343Z" fill="#050505"/>
<path id="Vector_47" d="M121.236 260.23C120.945 259.076 120.318 258.047 119.442 257.289C118.566 256.532 117.486 256.085 116.356 256.011C115.225 255.937 114.102 256.24 113.144 256.878C112.186 257.515 111.443 258.454 111.019 259.562C110.309 261.419 110.57 263.526 110.144 265.477C109.716 267.248 108.748 268.823 107.39 269.959C106.032 271.095 104.358 271.73 102.625 271.766L109.055 274.499C109.741 274.869 110.511 275.034 111.28 274.975C112.399 274.775 113.177 273.648 113.493 272.498C113.808 271.348 113.782 270.127 113.982 268.949C114.241 267.501 114.83 266.142 115.7 264.989C116.569 263.836 117.692 262.924 118.971 262.332C119.695 262.006 120.499 261.76 121.011 261.129C121.523 260.498 121.494 259.308 120.753 259.03" fill="#050505"/>
<path id="Vector_48" d="M131.656 260.257C130.783 258.247 128.482 258.656 126.401 258.921C125.362 259.09 124.378 259.524 123.533 260.185C122.689 260.846 122.01 261.714 121.556 262.714C120.666 264.74 120.496 267.036 121.077 269.184C121.388 270.647 122.131 271.968 123.199 272.957C124.298 273.889 129.464 276.094 129.894 274.195C129.356 276.672 130.438 276.284 132.039 278.182C132.868 275.555 133.257 270.605 134.086 267.978L134.46 266.791C134.723 265.958 134.987 265.123 135.177 264.267C135.416 263.193 135.508 261.96 134.875 261.081C134.242 260.202 132.648 260.168 132.328 261.219" fill="#050505"/>
<path id="Vector_49" d="M130.611 268.623L130.334 266.762C130.523 264.447 130.215 260.764 131.656 260.257L132.537 261.187C131.979 261.383 130.919 264.845 130.611 268.623Z" fill="#EC946E"/>
</g>
<g id="plane">
<path id="Vector_50" d="M352.754 109.559C351.973 109.826 350.601 110.045 349.014 110.221C344.696 110.702 338.779 110.872 338.779 110.872C338.779 110.872 308.371 113.209 285.579 104.517C285.579 104.517 282.264 102.906 285.343 100.738C285.816 100.414 286.32 100.129 286.847 99.8875C286.847 99.8875 286.86 99.8755 286.885 99.8532C287.235 99.5534 287.613 99.2833 288.015 99.0461C289.195 98.3389 291.189 97.4998 293.616 97.8798L353.473 106.852C353.473 106.852 355.66 108.564 352.754 109.559Z" fill="#F2F2F2"/>
<path id="Vector_51" d="M340.827 105.493L353.358 97.2531L358.882 98.1383L353.473 106.852C353.473 106.852 340.971 106.944 340.827 105.493Z" fill="#F2F2F2"/>
<path id="Vector_52" d="M309.277 100.487L334.238 94L338.262 94.7791L326.987 99.4795L323.462 103.133L309.277 100.487Z" fill="#F2F2F2"/>
<path id="Vector_53" d="M349.014 110.221C344.696 110.702 338.779 110.872 338.779 110.872C338.779 110.872 308.371 113.209 285.579 104.517C285.579 104.517 282.264 102.906 285.343 100.738L285.354 100.778C285.354 100.778 290.271 103.858 313.769 106.43L349.014 110.221Z" fill="#F2F2F2"/>
<path id="Vector_54" d="M345.001 110.043L356.161 114.266L358.965 113.977L352.289 109.328C352.289 109.328 344.215 107.733 345.001 110.043Z" fill="#F2F2F2"/>
<path id="Vector_55" d="M289.396 101.229C288.863 101.238 287.643 100.41 286.885 99.8532C287.235 99.5534 287.613 99.2833 288.015 99.0461C288.626 99.4809 289.714 100.185 290.319 100.16C291.193 100.124 290.198 101.216 289.396 101.229Z" fill="#F2F2F2"/>
<path id="Vector_56" d="M340.095 124.64L332.93 124.988L312.786 112.399L309.047 110.062L307.229 108.927C310.637 106.257 324.541 109.938 324.541 109.938C324.807 110.146 324.892 110.492 324.88 110.874C324.857 111.59 324.494 112.432 324.354 112.732C324.321 112.804 324.3 112.845 324.3 112.845L340.095 124.64Z" fill="#F2F2F2"/>
<path id="Vector_57" d="M352.754 109.559C351.973 109.826 350.601 110.045 349.014 110.221C344.696 110.702 338.779 110.872 338.779 110.872C338.779 110.872 308.371 113.209 285.579 104.517C285.579 104.517 282.264 102.906 285.343 100.738C285.816 100.414 286.32 100.129 286.847 99.8875C286.847 99.8875 286.86 99.8755 286.885 99.8532C287.235 99.5534 287.613 99.2833 288.015 99.0461C289.195 98.3389 291.189 97.4998 293.616 97.8798L353.473 106.852C353.473 106.852 355.66 108.564 352.754 109.559Z" fill="#030024"/>
<path id="Vector_58" d="M340.827 105.493L353.358 97.2531L358.882 98.1383L353.473 106.852C353.473 106.852 340.971 106.944 340.827 105.493Z" fill="#030024"/>
<path id="Vector_59" d="M309.277 100.487L334.238 94L338.262 94.7791L326.987 99.4795L323.462 103.133L309.277 100.487Z" fill="#030024"/>
<path id="Vector_60" d="M349.014 110.221C344.696 110.702 338.779 110.872 338.779 110.872C338.779 110.872 308.371 113.209 285.579 104.517C285.579 104.517 282.264 102.906 285.343 100.738L285.354 100.778C285.354 100.778 290.271 103.858 313.769 106.43L349.014 110.221Z" fill="#5887FF"/>
<path id="Vector_61" d="M345.001 110.043L356.161 114.266L358.965 113.977L352.289 109.328C352.289 109.328 344.215 107.733 345.001 110.043Z" fill="#030024"/>
<path id="Vector_62" d="M289.396 101.229C288.863 101.238 287.643 100.41 286.885 99.8532C287.235 99.5534 287.613 99.2833 288.015 99.0461C288.626 99.4809 289.714 100.185 290.319 100.16C291.193 100.124 290.198 101.216 289.396 101.229Z" fill="#477A49"/>
<path id="Vector_63" d="M340.095 124.64L332.93 124.988L312.786 112.399L309.047 110.062L307.229 108.927C310.637 106.257 324.541 109.938 324.541 109.938C324.807 110.146 324.892 110.492 324.88 110.874C324.857 111.59 324.494 112.432 324.354 112.732C324.321 112.804 324.3 112.845 324.3 112.845L340.095 124.64Z" fill="#030024"/>
</g>
</g>
</g>
<defs>
<clipPath id="clip0_30_2">
<rect width="411" height="296" fill="white" transform="translate(57 92)"/>
</clipPath>
</defs>
</svg>
